<?xml version="1.0" encoding="UTF-8"?>
<svg id="Layer_1" data-name="Layer 1" xmlns="http://www.w3.org/2000/svg" version="1.1" viewBox="0 0 601.89 190.91">
  <defs>
    <style>
      .cls-1 {
        fill: #231f20;
      }

      .cls-1, .cls-2, .cls-3 {
        stroke-width: 0px;
      }

      .cls-2 {
        fill: #4b8bbe;
      }

      .cls-3 {
        fill: #fff;
      }
    </style>
  </defs>
  <g>
    <polygon class="cls-2" points=".6 154.92 .6 31.93 31.09 1.45 31.09 185.41 .6 154.92"/>
    <path class="cls-3" d="M30.49,2.9v181.07L1.2,154.68V32.18L30.49,2.9M31.69,0l-2.05,2.05L.35,31.33l-.35.35v123.49l.35.35,29.29,29.29,2.05,2.05V0h0Z"/>
  </g>
  <g>
    <rect class="cls-2" x="38.98" y="28.64" width="30.49" height="160"/>
    <path class="cls-3" d="M68.87,29.24v158.81h-29.29V29.24h29.29M70.07,28.04h-31.69v161.21h31.69V28.04h0Z"/>
  </g>
  <g>
    <polygon class="cls-2" points="77.36 2.73 107.86 33.23 107.86 115.84 127.61 96.1 115.75 84.24 115.75 41.12 170.73 96.1 149.59 117.23 146.06 120.75 116.77 150.05 77.36 189.46 77.36 2.73"/>
    <path class="cls-3" d="M77.96,4.18l9.09,9.09,20.21,20.21v83.81l9.09-9.09,12.11-12.1-12.11-12.11v-41.42l53.53,53.53-20.71,20.71-3.53,3.52-29.29,29.3-38.39,38.39V4.18M76.76,1.28v189.63l2.05-2.05,38.39-38.39,29.29-29.3,3.53-3.52,20.71-20.71.85-.85-.85-.85-53.53-53.53-2.05-2.05v44.81l.35.35,11.26,11.26-11.26,11.25-7.04,7.04V32.98l-.35-.35-20.21-20.21-9.09-9.09-2.05-2.05h0Z"/>
  </g>
  <g>
    <path class="cls-2" d="M57.5,20.22h-16.62c-1.07,0-1.95-.87-1.95-1.95V2.02c0-1.07.87-1.95,1.95-1.95h26.7c1.07,0,1.95.87,1.95,1.95v16.25c0,1.07-.87,1.95-1.95,1.95h-4.34v5.65l-5.74-5.65ZM51.08,13.92c-.25,0-.45.2-.45.45s.2.45.45.45h12.6c.25,0,.45-.2.45-.45s-.2-.45-.45-.45h-12.6ZM44.78,9.72c-.25,0-.45.2-.45.45s.2.45.45.45h18.9c.25,0,.45-.2.45-.45s-.2-.45-.45-.45h-18.9ZM44.78,5.52c-.25,0-.45.2-.45.45s.2.45.45.45h18.9c.25,0,.45-.2.45-.45s-.2-.45-.45-.45h-18.9Z"/>
    <path class="cls-3" d="M67.58.68c.74,0,1.35.6,1.35,1.35v16.25c0,.74-.6,1.35-1.35,1.35h-4.94v4.82l-4.9-4.82h-16.87c-.74,0-1.35-.6-1.35-1.35V2.02c0-.74.6-1.35,1.35-1.35h26.7M44.78,7.02h18.9c.58,0,1.05-.47,1.05-1.05s-.47-1.05-1.05-1.05h-18.9c-.58,0-1.05.47-1.05,1.05s.47,1.05,1.05,1.05M44.78,11.22h18.9c.58,0,1.05-.47,1.05-1.05s-.47-1.05-1.05-1.05h-18.9c-.58,0-1.05.47-1.05,1.05s.47,1.05,1.05,1.05M51.08,15.42h12.6c.58,0,1.05-.47,1.05-1.05s-.47-1.05-1.05-1.05h-12.6c-.58,0-1.05.47-1.05,1.05s.47,1.05,1.05,1.05M67.58-.52h-26.7c-1.4,0-2.55,1.14-2.55,2.55v16.25c0,1.4,1.14,2.55,2.55,2.55h16.38l4.55,4.47,2.04,2.01v-6.48h3.74c1.4,0,2.55-1.14,2.55-2.55V2.02c0-1.4-1.14-2.55-2.55-2.55h0Z"/>
  </g>
  <g>
    <g>
      <path class="cls-1" d="M212.18,159.31c-21.81,0-32.88-8.8-32.88-26.15v-27.56h29.03v27.35c0,5.21,2.33,5.82,4.09,5.82,3.38,0,4.09-6.36,4.09-11.69,0-10.42-1.86-17.21-5.54-20.19-14.63-8.54-23.27-14.39-26.34-17.84-3.08-3.47-4.64-8.71-4.64-15.57v-16.96c0-18.07,11.11-27.24,33.02-27.24s32.14,8.8,32.14,26.15v25.5h-28c4.26,3.05,10.47,6.82,18.61,11.27l.05.03.04.03c6.57,5.24,9.89,12.28,9.89,20.91v18.92c0,18.07-11.29,27.24-33.56,27.24ZM212.81,50.04c-3.04,0-4.58,3.13-4.58,9.29,0,6.7.75,11.81,2.24,15.2.67,1.51,2.78,3.56,6.31,6.13l.6-15.48c0-9.9-1.58-15.14-4.58-15.14Z"/>
      <path class="cls-3" d="M213.01,29.87c21.03,0,31.54,8.52,31.54,25.55v24.9h-27.15l.59-15.11c0-10.51-1.73-15.77-5.18-15.77s-5.18,3.3-5.18,9.89.76,11.96,2.29,15.44c1.53,3.48,10.04,9.46,25.54,17.94,6.45,5.15,9.67,11.96,9.67,20.44v18.92c0,17.76-10.99,26.64-32.96,26.64s-32.27-8.52-32.27-25.55v-26.96h27.83v26.75c0,4.28,1.56,6.42,4.69,6.42s4.69-4.09,4.69-12.29c0-10.66-1.92-17.54-5.76-20.66-14.52-8.48-23.27-14.41-26.27-17.78-3-3.37-4.49-8.43-4.49-15.17v-16.96c0-17.76,10.81-26.64,32.42-26.64M213.01,28.67c-22.31,0-33.62,9.37-33.62,27.84v16.96c0,7.01,1.61,12.38,4.8,15.96,2.8,3.16,10.15,8.26,22.4,15.56h-27.88v28.16c0,17.75,11.26,26.75,33.47,26.75s34.16-9.37,34.16-27.84v-18.92c0-8.82-3.4-16.02-10.12-21.38l-.08-.07-.09-.05c-7.76-4.25-13.19-7.56-16.98-10.14h26.68v-26.1c0-17.75-11.02-26.75-32.74-26.75h0ZM216.24,79.49c-3.35-2.53-4.74-4.16-5.2-5.2-1.46-3.31-2.19-8.34-2.19-14.96,0-5.77,1.34-8.69,3.98-8.69,1.48,0,3.98,1.89,3.98,14.57l-.55,14.29h0ZM212.42,138.16c-1.62,0-3.49-.59-3.49-5.22v-26.55c.57.33,1.14.67,1.73,1.01,3.48,2.89,5.25,9.51,5.25,19.67,0,7.15-1.24,11.09-3.49,11.09h0Z"/>
    </g>
    <g>
      <path class="cls-1" d="M250.11,184.32V30.14h22.06l2.18,4.74c4.54-3.72,9.93-5.61,16.04-5.61,6.42,0,12.44,1.83,17.91,5.43,5.54,3.65,8.35,8.98,8.35,15.83v90.68c0,5.46-2.05,9.89-6.1,13.19-4.01,3.26-8.95,4.92-14.67,4.92-7.24,0-12.86-1.37-16.73-4.07v29.08h-29.03ZM283.42,50.04c-2.92,0-4.28,1.64-4.28,5.16v78.39c0,3.37,1.36,4.95,4.28,4.95s4.19-1.64,4.19-5.16V55.2c0-3.52-1.33-5.16-4.19-5.16Z"/>
      <path class="cls-3" d="M290.38,29.87c6.33,0,12.19,1.78,17.58,5.33,5.39,3.55,8.08,8.66,8.08,15.33v90.68c0,5.29-1.96,9.53-5.88,12.72-3.92,3.19-8.68,4.78-14.29,4.78-7.77,0-13.54-1.56-17.33-4.68v29.68h-27.83V30.74h21.07l2.35,5.11c4.57-3.99,9.99-5.98,16.26-5.98M283.42,139.14c3.19,0,4.79-1.92,4.79-5.76V55.2c0-3.84-1.6-5.76-4.79-5.76s-4.88,1.92-4.88,5.76v78.39c0,3.7,1.63,5.54,4.88,5.54M290.38,28.67c-5.99,0-11.3,1.77-15.82,5.26l-1.7-3.7-.32-.7h-23.04v155.38h30.23v-28.57c3.92,2.37,9.33,3.57,16.13,3.57,5.87,0,10.93-1.7,15.05-5.05,4.19-3.41,6.32-8.01,6.32-13.65V50.53c0-7.07-2.9-12.56-8.62-16.33-5.56-3.67-11.7-5.53-18.24-5.53h0ZM283.42,137.94c-1.82,0-3.68-.52-3.68-4.34V55.2c0-4.02,1.86-4.56,3.68-4.56s3.59.54,3.59,4.56v78.17c0,4.02-1.81,4.56-3.59,4.56h0Z"/>
    </g>
    <g>
      <path class="cls-1" d="M354.51,159.31c-21.91,0-33.02-9.16-33.02-27.24V56.51c0-18.07,11.11-27.24,33.02-27.24s33.31,8.8,33.31,26.15v48.66h-37.3v28.87c0,5.21,2.39,5.82,4.18,5.82s4.09-.6,4.09-5.82v-26.04h29.03v26.26c0,17.35-11.21,26.15-33.31,26.15ZM358.8,83.96v-28.32c0-5.02-2.33-5.6-4.09-5.6s-4.18.58-4.18,5.6v28.32h8.27Z"/>
      <path class="cls-3" d="M354.51,29.87c21.81,0,32.71,8.52,32.71,25.55v48.06h-37.3v29.46c0,4.28,1.59,6.42,4.78,6.42s4.69-2.14,4.69-6.42v-25.44h27.83v25.66c0,17.03-10.91,25.55-32.71,25.55s-32.42-8.88-32.42-26.64V56.51c0-17.76,10.81-26.64,32.42-26.64M349.92,84.56h9.47v-28.92c0-4.13-1.56-6.2-4.69-6.2s-4.78,2.07-4.78,6.2v28.92M354.51,28.67c-22.31,0-33.62,9.37-33.62,27.84v75.56c0,18.47,11.31,27.84,33.62,27.84s33.91-9,33.91-26.75v-26.86h-30.23v26.64c0,4.62-1.86,5.22-3.49,5.22s-3.58-.59-3.58-5.22v-28.26h37.3v-49.26c0-17.75-11.41-26.75-33.91-26.75h0ZM351.12,83.36v-27.72c0-4.43,1.91-5,3.58-5s3.49.57,3.49,5v27.72h-7.07Z"/>
    </g>
    <g>
      <path class="cls-1" d="M425.9,159.31c-21.91,0-33.02-9.16-33.02-27.24V56.51c0-18.07,11.11-27.24,33.02-27.24s33.31,8.8,33.31,26.15v48.66h-37.3v28.87c0,5.21,2.39,5.82,4.18,5.82s4.09-.6,4.09-5.82v-26.04h29.03v26.26c0,17.35-11.21,26.15-33.31,26.15ZM430.18,83.96v-28.32c0-5.02-2.33-5.6-4.09-5.6s-4.18.58-4.18,5.6v28.32h8.27Z"/>
      <path class="cls-3" d="M425.9,29.87c21.81,0,32.71,8.52,32.71,25.55v48.06h-37.3v29.46c0,4.28,1.59,6.42,4.78,6.42s4.69-2.14,4.69-6.42v-25.44h27.83v25.66c0,17.03-10.91,25.55-32.71,25.55s-32.42-8.88-32.42-26.64V56.51c0-17.76,10.81-26.64,32.42-26.64M421.31,84.56h9.47v-28.92c0-4.13-1.56-6.2-4.69-6.2s-4.78,2.07-4.78,6.2v28.92M425.9,28.67c-22.31,0-33.62,9.37-33.62,27.84v75.56c0,18.47,11.31,27.84,33.62,27.84s33.91-9,33.91-26.75v-26.86h-30.23v26.64c0,4.62-1.86,5.22-3.49,5.22s-3.58-.59-3.58-5.22v-28.26h37.3v-49.26c0-17.75-11.41-26.75-33.91-26.75h0ZM422.51,83.36v-27.72c0-4.43,1.91-5,3.58-5s3.49.57,3.49,5v27.72h-7.07Z"/>
    </g>
    <g>
      <path class="cls-1" d="M497.78,159.31c-22.3,0-33.61-9.16-33.61-27.24V56.51c0-18.07,11.31-27.24,33.61-27.24s32.73,8.8,32.73,26.15v31.8h-29.03v-31.59c0-5.02-2.33-5.6-4.09-5.6s-4.18.58-4.18,5.6v77.3c0,5.21,2.39,5.82,4.18,5.82s4.09-.6,4.09-5.82v-31.15h29.03v31.37c0,17.35-11.01,26.15-32.73,26.15Z"/>
      <path class="cls-3" d="M497.78,29.87c21.42,0,32.13,8.52,32.13,25.55v31.2h-27.83v-30.99c0-4.13-1.56-6.2-4.69-6.2s-4.78,2.07-4.78,6.2v77.3c0,4.28,1.59,6.42,4.78,6.42s4.69-2.14,4.69-6.42v-30.55h27.83v30.77c0,17.03-10.71,25.55-32.13,25.55s-33.01-8.88-33.01-26.64V56.51c0-17.76,11-26.64,33.01-26.64M497.78,28.67c-22.7,0-34.21,9.37-34.21,27.84v75.56c0,18.47,11.51,27.84,34.21,27.84s33.33-9,33.33-26.75v-31.97h-30.23v31.75c0,4.62-1.86,5.22-3.49,5.22s-3.58-.59-3.58-5.22V55.64c0-4.43,1.91-5,3.58-5s3.49.57,3.49,5v32.19h30.23v-32.4c0-17.75-11.21-26.75-33.33-26.75h0Z"/>
    </g>
    <g>
      <path class="cls-1" d="M572.86,157.57V55.2c0-4.63-2.33-5.16-4.09-5.16-2.85,0-4.18,1.57-4.18,4.95v102.58h-29.03V.46h29.03v32.8c3.52-2.65,9.11-3.99,16.64-3.99,5.57,0,10.45,1.65,14.5,4.92,4.09,3.3,6.17,7.73,6.17,13.19v110.2h-29.03Z"/>
      <path class="cls-3" d="M563.99,1.06v33.49c3.31-3.12,9.06-4.67,17.24-4.67,5.45,0,10.16,1.59,14.12,4.78,3.96,3.19,5.94,7.43,5.94,12.72v109.6h-27.83V55.2c0-3.84-1.56-5.76-4.69-5.76s-4.78,1.85-4.78,5.54v101.99h-27.83V1.06h27.83M565.19-.14h-30.23v158.31h30.23V54.99c0-3.83,1.81-4.34,3.58-4.34s3.49.54,3.49,4.56v102.97h30.23V47.38c0-5.65-2.15-10.24-6.39-13.66-4.16-3.35-9.17-5.05-14.88-5.05-7.02,0-12.4,1.16-16.04,3.45V-.14h0Z"/>
    </g>
  </g>
</svg>