<?xml version="1.0" encoding="UTF-8"?>
<svg id="Layer_1" data-name="Layer 1" xmlns="http://www.w3.org/2000/svg" version="1.1" viewBox="0 0 356.7 151.9">
  <defs>
    <style>
      .cls-1 {
        fill: #000;
      }

      .cls-1, .cls-2, .cls-3, .cls-4, .cls-5 {
        stroke-width: 0px;
      }

      .cls-2 {
        fill: #4271d6;
      }

      .cls-3 {
        fill: #010101;
      }

      .cls-4 {
        fill: #fff;
      }

      .cls-5 {
        fill: #6d93e0;
      }
    </style>
  </defs>
  <g>
    <path class="cls-3" d="M80.4,86.2c-.7,0-1.2.6-1.2,1.2s.6,1.2,1.2,1.2,1.2-.6,1.2-1.2-.6-1.2-1.2-1.2ZM94.3,111.1h.1c-1.1-.5-2.2-1.3-3.2-2.4-1-1-1.9-2.2-2.8-3.7-.3-.5-.9-.7-1.5-.4-.5.3-.7.9-.4,1.5.9,1.6,2,3,3.1,4.1s2.5,2.2,3.8,2.8c.5.3,1.2,0,1.4-.5s0-1.2-.5-1.4ZM112.6,94.1c-2,0-3.6,1.6-3.6,3.6s1.6,3.6,3.6,3.6,3.6-1.6,3.6-3.6-1.6-3.6-3.6-3.6ZM112.6,94.1c-2,0-3.6,1.6-3.6,3.6s1.6,3.6,3.6,3.6,3.6-1.6,3.6-3.6-1.6-3.6-3.6-3.6ZM94.3,111.1h.1c-1.1-.5-2.2-1.3-3.2-2.4-1-1-1.9-2.2-2.8-3.7-.3-.5-.9-.7-1.5-.4-.5.3-.7.9-.4,1.5.9,1.6,2,3,3.1,4.1s2.5,2.2,3.8,2.8c.5.3,1.2,0,1.4-.5s0-1.2-.5-1.4ZM80.4,86.2c-.7,0-1.2.6-1.2,1.2s.6,1.2,1.2,1.2,1.2-.6,1.2-1.2-.6-1.2-1.2-1.2ZM80.4,86.2c-.7,0-1.2.6-1.2,1.2s.6,1.2,1.2,1.2,1.2-.6,1.2-1.2-.6-1.2-1.2-1.2ZM94.3,111.1h.1c-1.1-.5-2.2-1.3-3.2-2.4-1-1-1.9-2.2-2.8-3.7-.3-.5-.9-.7-1.5-.4-.5.3-.7.9-.4,1.5.9,1.6,2,3,3.1,4.1s2.5,2.2,3.8,2.8c.5.3,1.2,0,1.4-.5s0-1.2-.5-1.4ZM112.6,94.1c-2,0-3.6,1.6-3.6,3.6s1.6,3.6,3.6,3.6,3.6-1.6,3.6-3.6-1.6-3.6-3.6-3.6ZM112.6,94.1c-2,0-3.6,1.6-3.6,3.6s1.6,3.6,3.6,3.6,3.6-1.6,3.6-3.6-1.6-3.6-3.6-3.6ZM94.3,111.1h.1c-1.1-.5-2.2-1.3-3.2-2.4-1-1-1.9-2.2-2.8-3.7-.3-.5-.9-.7-1.5-.4-.5.3-.7.9-.4,1.5.9,1.6,2,3,3.1,4.1s2.5,2.2,3.8,2.8c.5.3,1.2,0,1.4-.5s0-1.2-.5-1.4ZM80.4,86.2c-.7,0-1.2.6-1.2,1.2s.6,1.2,1.2,1.2,1.2-.6,1.2-1.2-.6-1.2-1.2-1.2ZM125.4,85.7c0,0-.1-.3-.2-.4-3.8-5.7-9.7-9.3-16.2-10.7-5.8-1.3-12-.8-17.2,1.7V8c0-1.2,0-1.4-1-2.6-.4-.5-.9-.9-1.4-1.2-1.9-1.2-4.9-1.9-7.7-1.9s-5.8.7-7.5,2.1c-.4.3-.8.7-1.1,1.2-.7,1.1-.7,1.3-.7,2.3v72.6c0,2.7.2,5.2.4,7.5.2,2.4.6,4.6,1,6.7,1.3,6.3,3.9,12.6,7.9,17.5,3.4,4.3,8,7.7,13.7,9.3,5.4,1.5,11.1,1.3,16.3-.5s9.9-5.1,13.5-9.7c.8-1.1,1.2-7,1.2-12.9s-.3-10.9-1-12.7ZM76.1,6.7c1.1-.9,2.9-1.3,4.9-1.4.3,0,.6,0,.8,0s.5,0,.8,0c2,.1,4,.6,5.2,1.4.3.2.6.4.8.6.3.3.3.4.3.6v.9h-13.3v-1c0-.4,0-.3.2-.6h-.2c.1-.2.3-.3.5-.5ZM110.6,118v.2c-4.6,1.6-9.6,1.8-14.4.5-5.1-1.4-9.1-4.4-12.2-8.3-3.7-4.6-6-10.4-7.3-16.3-.4-2-.8-4.1-1-6.4s-.3-4.7-.4-7.3V11.5h13.3v67.2c0,.8.7,1.5,1.5,1.5s.6,0,.8-.3c5-3,11.4-3.7,17.3-2.4,5.5,1.2,10.6,4.2,13.9,8.8-.3.2-.6.6-.6,1v21.3c0,.5.4,1,.9,1.1-3.2,3.9-7.3,6.8-11.8,8.3ZM112.6,94.1c-2,0-3.6,1.6-3.6,3.6s1.6,3.6,3.6,3.6,3.6-1.6,3.6-3.6-1.6-3.6-3.6-3.6ZM94.3,111.1h.1c-1.1-.5-2.2-1.3-3.2-2.4-1-1-1.9-2.2-2.8-3.7-.3-.5-.9-.7-1.5-.4-.5.3-.7.9-.4,1.5.9,1.6,2,3,3.1,4.1s2.5,2.2,3.8,2.8c.5.3,1.2,0,1.4-.5s0-1.2-.5-1.4ZM80.4,86.2c-.7,0-1.2.6-1.2,1.2s.6,1.2,1.2,1.2,1.2-.6,1.2-1.2-.6-1.2-1.2-1.2ZM80.4,86.2c-.7,0-1.2.6-1.2,1.2s.6,1.2,1.2,1.2,1.2-.6,1.2-1.2-.6-1.2-1.2-1.2ZM94.3,111.1h.1c-1.1-.5-2.2-1.3-3.2-2.4-1-1-1.9-2.2-2.8-3.7-.3-.5-.9-.7-1.5-.4-.5.3-.7.9-.4,1.5.9,1.6,2,3,3.1,4.1s2.5,2.2,3.8,2.8c.5.3,1.2,0,1.4-.5s0-1.2-.5-1.4ZM112.6,94.1c-2,0-3.6,1.6-3.6,3.6s1.6,3.6,3.6,3.6,3.6-1.6,3.6-3.6-1.6-3.6-3.6-3.6ZM112.6,94.1c-2,0-3.6,1.6-3.6,3.6s1.6,3.6,3.6,3.6,3.6-1.6,3.6-3.6-1.6-3.6-3.6-3.6ZM94.3,111.1h.1c-1.1-.5-2.2-1.3-3.2-2.4-1-1-1.9-2.2-2.8-3.7-.3-.5-.9-.7-1.5-.4-.5.3-.7.9-.4,1.5.9,1.6,2,3,3.1,4.1s2.5,2.2,3.8,2.8c.5.3,1.2,0,1.4-.5s0-1.2-.5-1.4ZM80.4,86.2c-.7,0-1.2.6-1.2,1.2s.6,1.2,1.2,1.2,1.2-.6,1.2-1.2-.6-1.2-1.2-1.2ZM80.4,86.2c-.7,0-1.2.6-1.2,1.2s.6,1.2,1.2,1.2,1.2-.6,1.2-1.2-.6-1.2-1.2-1.2ZM80.4,86.2c-.7,0-1.2.6-1.2,1.2s.6,1.2,1.2,1.2,1.2-.6,1.2-1.2-.6-1.2-1.2-1.2ZM94.3,111.1h.1c-1.1-.5-2.2-1.3-3.2-2.4-1-1-1.9-2.2-2.8-3.7-.3-.5-.9-.7-1.5-.4-.5.3-.7.9-.4,1.5.9,1.6,2,3,3.1,4.1s2.5,2.2,3.8,2.8c.5.3,1.2,0,1.4-.5s0-1.2-.5-1.4ZM112.6,94.1c-2,0-3.6,1.6-3.6,3.6s1.6,3.6,3.6,3.6,3.6-1.6,3.6-3.6-1.6-3.6-3.6-3.6ZM112.6,94.1c-2,0-3.6,1.6-3.6,3.6s1.6,3.6,3.6,3.6,3.6-1.6,3.6-3.6-1.6-3.6-3.6-3.6ZM94.3,111.1h.1c-1.1-.5-2.2-1.3-3.2-2.4-1-1-1.9-2.2-2.8-3.7-.3-.5-.9-.7-1.5-.4-.5.3-.7.9-.4,1.5.9,1.6,2,3,3.1,4.1s2.5,2.2,3.8,2.8c.5.3,1.2,0,1.4-.5s0-1.2-.5-1.4Z"/>
    <path class="cls-5" d="M122.4,109.7c-.5,0-.9-.6-.9-1.1v-21.3c0-.4.3-.8.6-1-3.3-4.6-8.4-7.6-13.9-8.8-5.9-1.3-12.3-.6-17.3,2.4-.2.3,0,.3-.8.3s-1.5-.7-1.5-1.5V11.5h-13.3v68.9c.1,2.6.2,5,.4,7.3s.6,4.4,1,6.4c1.3,5.9,3.6,11.7,7.3,16.3,3.1,3.9,7.1,6.9,12.2,8.3,4.8,1.3,9.8,1.1,14.5-.5v-.2c4.4-1.5,8.5-4.4,11.7-8.3ZM80.4,88.6c-.6,0-1.2-.6-1.2-1.2s.5-1.2,1.2-1.2,1.2.6,1.2,1.2-.6,1.2-1.2,1.2ZM94.8,112.5c-.2.5-.9.8-1.4.5-1.3-.6-2.6-1.6-3.8-2.8s-2.2-2.5-3.1-4.1c-.3-.6,0-1.2.4-1.5.6-.3,1.2-.1,1.5.4.9,1.5,1.8,2.7,2.8,3.7,1,1.1,2.1,1.9,3.2,2.4h-.1c.5.2.7.9.5,1.4ZM112.6,101.3c-2,0-3.6-1.6-3.6-3.6s1.6-3.6,3.6-3.6,3.6,1.6,3.6,3.6-1.6,3.6-3.6,3.6Z"/>
    <path class="cls-2" d="M88.8,7.9v.9h-13.3v-1c0-.4,0-.3.2-.6,0-.2.3-.3.5-.5,1.2-1,3.3-1.4,5.6-1.4s4.7.5,6.1,1.4c.3.2.6.4.8.6.3.3.3.4.3.6h-.2Z"/>
  </g>
  <g>
    <path class="cls-2" d="M33.8,5.3v114.3h-5.5c-12.6,0-22.9-10.3-22.9-22.9V28.2C5.4,15.6,15.7,5.3,28.3,5.3h5.5Z"/>
    <path class="cls-1" d="M28.3,2.3C14,2.3,2.4,13.9,2.4,28.2v68.5c0,14.3,11.6,25.9,25.9,25.9h8.5c0-.1,31-.1,31-.1V2.3H28.3ZM33.8,119.6h-5.5c-12.6,0-22.9-10.3-22.9-22.9V28.2C5.4,15.6,15.7,5.3,28.3,5.3h5.5v114.3ZM64.8,119.5h-28V24.3h28v95.2ZM64.8,21.3h-28V5.3h28v16Z"/>
  </g>
  <rect class="cls-2" x="36.8" y="24.3" width="28" height="95.2"/>
  <rect class="cls-2" x="36.8" y="5.3" width="28" height="16"/>
  <g>
    <path class="cls-1" d="M175.8,150.6c-1.5,0-3.9-1-3.9-7.5-.3-7.6,1.1-15.6,2.5-23.4.8-4.8,1.7-9.8,2.1-14.6-.4.4-.8.7-1.2,1.1-5.5,4.9-11.7,10.5-18.2,14.4-1.5,2.3-3.7,3-5.9,3.7-.4.1-.8.3-1.2.4-.1,0-.2,0-.3,0s-.2,0-.3,0c-1.7-.5-1.9-2-1.9-3-1.5-2.4-1.7-5.7-1.9-8.5,0-1.3-.1-2.5-.3-3.5-.2-1.1.2-2.2,1.1-3.3,1-1.2,2.5-2,3.8-2s1.7.4,2.3,1.1c0,0,0,0,0,0,.1-.8.3-1.8.5-3,.6-2.9,1.7-8.4.7-9.5,0,0,0,0-.2,0-.3,0-1.4.2-4.2,3-.8.8-1.9,1.7-3.1,2.7-3.2,2.6-7.5,6.3-10.1,10-.2.3-.5.4-.8.4s0,0-.1,0c-.4,0-.7-.3-.8-.7-.5-1.4-1-2.5-1.8-4-.2-.4-.4-.8-.6-1.3-.1-.2-.1-.5,0-.8.9-2.5,4-4.5,6.2-6l.8-.5c1.9-1.6,3.5-3.2,5.2-5,1.2-1.3,2.5-2.6,4-4,0,0,0,0,0,0,1.2-.8,2.4-2.3,3.7-3.8,2.8-3.2,5.9-6.8,9.7-6.8s2.8.5,4.1,1.5c.1.1.2.2.3.4,3.1,6.6,0,15.7-2.7,23.8-.7,2-1.3,3.9-1.8,5.7,5.2-4.6,21.4-24.9,25.7-34.1,0,0,0,0,0-.1.4-.7.8-1.7,1.3-2.7,1.1-2.7,2.4-5.8,5.2-6.5,0,0,.2,0,.2,0s.2,0,.3,0c1,.3,1.8.9,2.3,1.8,1.9,3.6-1.2,11.7-4.1,19.5-1.4,3.7-2.7,7.2-3.2,9.7-1.7,5.5-3.6,12.2-5.1,18.9,2.5-9.1,5.5-18.1,11.7-25.1,0-.1.2-.2.4-.3,1.1-.4,2.1-.7,3-.7,4,0,5.8,3.9,7.5,7.7,1,2.2,2,4.5,3.5,5.7.9-1.4,2.2-2.7,4-4.2,2.5-18.6,12.7-25.5,18.6-25.5s4.9,1.4,5.9,3.8c2.3,5.7-2.5,15-12.8,25.1-.2,1.4,0,2.5.6,3.2.9,1.1,2.7,1.4,4,1.4,3,0,6.8-1.3,8.7-2.9,1-1.8,2.3-3.2,4.4-5,1.1-9.9,6.5-21.5,16.2-25.6,0,0,0,0,.1,0,.8-.2,1.6-.4,2.3-.4,3.9,0,6.4,3.3,6.6,8.6,0,0,0,.1,0,.2-1.4,7.5-6.3,12.9-11.5,18.5-.6.7-1.3,1.4-1.9,2.1-.3,1.4,0,2.4.5,3.2.7.9,2.2,1.4,4.1,1.4,3.1,0,6.9-1.3,8.7-2.9,2.5-3.5,24.7-22.7,32.6-22.7s2.8.8,3.2,2.2c0,0,0,.1,0,.2.3,3.2,0,7.6-4.5,9.7-6,2.8-11.8,7.8-16.7,12.4-1.2,3.8-1.2,6.5-.2,7.9.6.8,1.7,1.2,3.1,1.2,5.6,0,15.7-6.1,19.4-10.8,0,0,.1-.1.2-.2,4.8-3.4,6-8.8,7.3-14.4.8-3.4,1.6-6.8,3.2-10.1,2.7-7.3,13-32.2,30.6-40.6.1,0,.3,0,.4,0,.2,0,.5,0,.6.2.4.4.9.8,1.2,1.2,1.9.5,3.2,1.8,3.8,3.6,3.8,12.1-25.7,50.1-31.1,55.9-.2,1.4-.6,2.8-.9,4.1-.8,3.4-1.6,6.6-1,9.1,1.9-1.8,3.6-5.6,5.3-9.3,2.8-6.2,5.8-12.5,10.5-12.5s1.8.2,2.7.7c.2.1.4.3.5.5.7,1.6,1.2,3.3,1.6,4.9,1.2,4.4,2.1,7,5.1,7,1,0,2.1-.3,3.5-.8.1,0,.2,0,.4,0,.4,0,.7.2.9.6.5,1.1,1.1,2.4,1.6,3.6.3.6.5,1.2.8,1.8.2.4,0,.9-.3,1.2-2,1.5-7.1,5.1-12.2,5.1s-5.6-1.4-7.3-4c-.4-.6-.7-1.1-.9-1.5-.3-.4-.5-.9-.7-1.1-1.5,1.5-2.9,3.7-4.3,6.1-2.9,4.8-6.2,10.2-11.6,10.2s-1.7-.1-2.6-.4c-.1,0-.2,0-.3-.2-2.7-2-2.9-5.9-3.1-9,0-1.1-.1-2.1-.3-2.9-.2-.7,0-1.4.3-2.1-1.8,1.2-3.6,2.7-5.3,4-6.2,4.9-12.7,10-21.4,10s-.4,0-.6,0c-4.1-.3-7.9-2.6-10.1-6-1.2-1.9-1.8-4-1.7-6.1-2.8,2.5-5.7,4.5-9.3,4.8-2.2.9-4.2,1.3-5.9,1.3-5.4,0-7.5-4.2-8.8-7-.5-1.1-1.2-2.5-1.7-2.5s-.2,0-.3,0l-.8.8c-3.4,3.3-7.3,7-12,7.3-2.1.9-4.1,1.3-5.8,1.3-5.4,0-7.6-4.3-9-7.1-.4-.8-1.2-2.4-1.6-2.4s-.4,0-1.3,1.2c-.1.1-.3.3-.4.3-1.8.7-3.4,1-4.9,1-3.8,0-6.3-2.2-8.9-4.6-.7-.7-1.5-1.4-2.3-2-5,6.9-7.6,15.9-10.1,24.7-1.3,4.7-2.7,9.5-4.5,14-1,4.6-4.2,8.4-7,8.4ZM229,85.4c-.7.6-2.1,2.1-3.1,3.9-.6,1-.9,1.8-1,2.2.7-.6,1.9-2.1,3.4-4.3.2-.3.4-.6.6-.9,0-.5.1-.8.1-1.1ZM258.6,85.2c-1.2.5-3.5,4.3-4.2,6.3,1.5-1.3,4.2-4.9,4.3-6,0-.1,0-.2,0-.3ZM344.1,50.6c-.3.3-.7.7-1.3,1.3-3.7,4.5-12.4,16.2-16.1,28.4,3.4-4,6.9-8.5,10.2-14.3,2-3.6,6.4-12.1,7.3-15.4Z"/>
    <path class="cls-4" d="M347.4,38.1c.6.5,1,.9,1.2,1.3,15.4,3.3-21.2,51.3-27.6,58.1v-.4c-.8,5.4-3.6,11.5-1.5,15.8,5.9-3.3,9.1-22.4,16.3-22.4.7,0,1.5.2,2.3.6,2.4,5.3,2.2,12.6,7.7,12.6s2.3-.3,3.8-.9c.8,1.7,1.6,3.6,2.4,5.4-3,2.3-7.5,4.9-11.6,4.9s-4.8-1-6.4-3.6c-1.6-2.5-1.8-3.3-2.7-3.3-5,4.4-8.3,16.5-15.7,16.5s-1.5-.1-2.3-.4c-3.2-2.4-2.4-8.1-3-11.3-.3-1.2,1.5-3.5,0-3.9-.3.4-.7.8-1.2,1.1-8.2,5.7-15.4,13.9-26.2,13.9s-.4,0-.6,0c-6.8-.5-12.8-7.1-10.2-13.9-3.6,3.3-6.8,6.4-11.1,6.6-2.3.9-4.1,1.3-5.7,1.3-7.7,0-7.6-9.5-10.5-9.5s-.6,0-.9.3c-3.7,3.5-7.7,7.7-12.4,7.9-2.2.9-4,1.3-5.5,1.3-7.6,0-8-9.5-10.6-9.5s-1.3.5-2.1,1.6c-1.8.7-3.3,1-4.6,1-4.7,0-7.1-3.7-11.4-7.1-8.3,10.8-10.2,26.8-15.3,39.8-.9,4.2-3.8,7.7-6.1,7.7s-2.9-1.8-2.9-6.5c-.5-13,4-27.2,4.8-40.4-6.4,5.7-13.6,12.6-21.3,17.1-1.6,2.6-4.1,3-6.7,3.9-1.1-.3-1.2-1.2-1.2-2.3-2.2-3.2-1.6-8.3-2.2-11.9-.3-1.8,2-4.1,3.9-4.1.7,0,1.3.3,1.7,1,.3.6.5.9.7.9.3,0,.6-.6.9-1.6.5-3.8,3.3-13.8.1-13.8s-2.6,1-4.9,3.3c-2.7,2.6-9.6,7.5-13.3,12.9-.6-1.8-1.4-3.3-2.4-5.4.9-2.5,4.5-4.6,6.6-6,3.6-2.9,5.9-6,9.3-9.1,3.7-2.7,7.8-10.4,12.9-10.4,1.1,0,2.3.4,3.5,1.3,3.9,8.4-2.8,21.6-5.1,31,0,0,.1,0,.2,0,3.1,0,23.4-25.9,27.9-35.7,1.6-2.5,2.5-8,5.9-8.8,6.5,1.7-4,21.5-5.8,29.8-3.1,9.9-7,24.9-7.9,35.8,4.7-13,6.3-30,16.2-41.1,1-.4,1.8-.6,2.6-.6,6,0,6.4,11.2,11.3,13.8,1.1-2,2.6-3.5,4.6-5.1,2.2-17.4,11.6-25,17.7-25,7.1,0,9.8,10.2-7.9,27.4-.9,4.5,1.9,6.1,5.5,6.1s7.5-1.5,9.5-3.3c1.1-2,2.6-3.5,4.6-5.1,1-9.6,6.2-21.2,15.6-25.2.7-.2,1.4-.3,2.1-.3,3.8,0,5.5,3.6,5.6,7.6-1.5,8.2-7.3,13.6-13.4,20.3-1,4.5,1.9,6.1,5.5,6.1s7.5-1.4,9.5-3.3c2.1-3.3,24.4-22.4,31.8-22.4,1.2,0,1.9.5,2.3,1.5.3,3.6-.2,7-3.9,8.7-6.1,2.8-12,7.9-17.2,12.8-2.5,7.9-.2,10.7,3.8,10.7,6.2,0,16.5-6.5,20.2-11.2,8-5.7,6.6-16.2,10.8-24.9,5.4-14.6,15.9-33.3,30.1-40.1M325.2,81.8h0c-.5,1-.8,1.7-.8,1.9l.3.3c4.9-5.4,9.1-10.6,13-17.5.8-1.3,9.5-17.5,7.2-17.5s-1.3.6-2.8,2.2c-6.8,8.4-14.1,20-16.9,30.6M224.2,93c1.6,0,4.6-4.9,5.6-6.1.4-2,.2-2.7-.4-2.7-1.7,0-6.6,7.2-5.5,8.7.1,0,.2,0,.3,0M253.7,93c1.7,0,6.4-6.4,6-7.7-.2-.8-.5-1.1-.9-1.1-2,0-6.3,7.7-5.4,8.7,0,0,.2,0,.3,0M347.4,36.1c-.3,0-.6,0-.9.2-17.8,8.5-28.3,33.5-31.1,41.1-1.6,3.3-2.4,6.8-3.2,10.2-1.3,5.7-2.5,10.6-6.9,13.8-.2.1-.3.2-.4.4-3.5,4.5-13.4,10.4-18.6,10.4s-2.2-.6-2.3-.8c-.4-.5-1.1-2.2.3-6.8,4.8-4.5,10.5-9.4,16.3-12.1,5.1-2.4,5.3-7.2,5.1-10.7,0-.1,0-.3,0-.4-.5-1.9-2.1-2.9-4.2-2.9-8.3,0-30.3,19.1-33.3,23.1-1.5,1.3-4.9,2.6-8,2.6s-2.8-.4-3.3-1c-.4-.5-.5-1.2-.4-2.1.6-.6,1.1-1.2,1.7-1.9,5.3-5.8,10.4-11.2,11.8-19,0-.1,0-.3,0-.4-.2-5.8-3.2-9.5-7.6-9.5s-1.7.1-2.6.4c0,0-.2,0-.2,0-9.9,4.2-15.4,15.9-16.7,26-1.5,1.2-3.1,2.8-4.3,4.8-1.6,1.3-4.9,2.6-7.9,2.6s-2.7-.4-3.2-1c-.4-.5-.5-1.2-.4-2.1,10.6-10.4,15.3-19.9,12.8-26-1.1-2.7-3.7-4.4-6.8-4.4-7.7,0-17.1,9.1-19.5,26-1.1.9-2.2,1.9-3.1,3.2-.9-1.2-1.7-2.9-2.5-4.6-1.8-3.9-3.8-8.2-8.4-8.2-1.1,0-2.2.3-3.4.7-.3.1-.5.3-.7.5-1.8,2.1-3.4,4.3-4.8,6.7.6-2.3,1.8-5.6,3.1-9.1,3.7-9.9,6-16.6,4-20.3-.6-1.2-1.6-2-2.9-2.3-.2,0-.3,0-.5,0-.2,0-.3,0-.5,0-3.4.8-4.8,4.3-5.9,7.1-.4,1-.8,2-1.2,2.6,0,0,0,.2-.1.2-3.5,7.7-15.9,23.8-22.6,31,.2-.6.4-1.2.6-1.8,2.7-8.3,5.8-17.6,2.6-24.6-.1-.3-.4-.6-.6-.8-1.5-1.1-3.1-1.6-4.7-1.6-4.3,0-7.6,3.8-10.5,7.1-1.3,1.5-2.5,2.9-3.6,3.6,0,0-.1,0-.2.1-1.5,1.4-2.8,2.7-4,4-1.6,1.7-3.2,3.4-5.1,4.9-.2.1-.4.3-.7.4-2.4,1.5-5.6,3.6-6.6,6.5-.2.5-.2,1.1,0,1.5.2.4.4.9.6,1.3.7,1.5,1.3,2.6,1.7,3.9.2.7.9,1.2,1.6,1.3,0,0,.2,0,.3,0,.7,0,1.3-.3,1.6-.9,2.5-3.7,6.8-7.2,9.9-9.8,1.3-1.1,2.4-2,3.2-2.7,1.6-1.6,2.5-2.2,3-2.5.2,1.8-.7,6.2-1,8.2-.1.5-.2,1-.3,1.5-.5-.2-1-.3-1.6-.3-1.6,0-3.3.9-4.5,2.3-1.1,1.3-1.6,2.7-1.3,4.1.2,1,.2,2.2.3,3.4.2,2.9.4,6.2,1.9,8.8,0,1.1.5,3,2.7,3.6.2,0,.3,0,.5,0s.4,0,.7-.1c.4-.1.8-.3,1.2-.4,2.1-.7,4.6-1.4,6.3-3.9,6.2-3.7,12.2-9,17.4-13.7-.5,3.9-1.2,8-1.9,11.9-1.4,7.8-2.8,15.9-2.5,23.6,0,7.4,3.1,8.5,4.9,8.5,3.7,0,6.9-4.6,8-9.1,1.7-4.5,3.1-9.3,4.5-14,2.4-8.3,4.8-16.9,9.3-23.5.5.4,1,.9,1.5,1.3,2.8,2.5,5.4,4.9,9.6,4.9s3.4-.4,5.3-1.1c.3-.1.6-.3.9-.6.2-.2.3-.4.4-.5.3.4.6,1,.8,1.5,1.5,2.9,3.9,7.7,9.9,7.7s3.8-.4,6-1.4c4.9-.4,8.9-4.2,12.4-7.6.1-.1.2-.2.4-.3.3.4.6,1.1.9,1.7,1.4,2.8,3.7,7.5,9.7,7.5s3.8-.4,6.1-1.3c3.2-.2,5.7-1.7,8.2-3.7.2,1.6.8,3.1,1.7,4.6,2.3,3.6,6.5,6.1,10.8,6.4,0,0,0,0,0,0,.2,0,.4,0,.6,0,9,0,15.6-5.2,22-10.2,1.1-.9,2.3-1.8,3.4-2.6,0,0,0,.1,0,.2.1.7.2,1.7.2,2.7.2,3.3.4,7.5,3.5,9.8.2.1.4.2.6.3,1,.3,1.9.5,2.9.5,5.9,0,9.3-5.7,12.4-10.6,1.1-1.9,2.2-3.6,3.3-5,.3.4.6.9,1,1.5,1.8,2.9,4.7,4.5,8.1,4.5,5.4,0,10.7-3.7,12.8-5.3.7-.6,1-1.6.6-2.4-.3-.6-.5-1.2-.8-1.8-.5-1.2-1.1-2.5-1.6-3.6-.3-.7-1.1-1.1-1.8-1.1-.2,0-.5,0-.7.1-1.2.5-2.3.7-3.1.7-2.2,0-2.9-1.8-4.2-6.3-.5-1.7-1-3.4-1.7-5.1-.2-.4-.5-.8-.9-1-1.1-.5-2.1-.8-3.2-.8h0c-5.4,0-8.4,6.7-11.4,13.1-1.2,2.5-2.4,5.2-3.7,7.1,0-1.9.6-4.1,1.2-6.4.3-1.3.6-2.6.9-3.9,3-3.3,11.2-13.7,18.8-25.5,9.9-15.3,14-25.8,12.3-31.2-.6-2.1-2.1-3.5-4.1-4.2-.3-.4-.7-.8-1.1-1.1-.4-.3-.8-.5-1.3-.5h0ZM329.7,74.9c2.6-6,6.4-12.5,11-18.7-1.5,3.2-3.4,6.9-4.8,9.3-2,3.5-4.1,6.6-6.2,9.4h0Z"/>
  </g>
</svg>