<?xml version="1.0" encoding="UTF-8"?>
<svg id="Layer_1" data-name="Layer 1" xmlns="http://www.w3.org/2000/svg" version="1.1" viewBox="0 0 352.11 149.24">
  <defs>
    <style>
      .cls-1, .cls-2 {
        fill: #231f20;
      }

      .cls-1, .cls-3, .cls-4, .cls-5 {
        stroke-width: 0px;
      }

      .cls-2 {
        stroke: #fff;
        stroke-miterlimit: 10;
      }

      .cls-3 {
        fill: #010101;
      }

      .cls-4 {
        fill: #bcbec0;
      }

      .cls-5 {
        fill: #6d6e71;
      }
    </style>
  </defs>
  <g>
    <path class="cls-3" d="M93.45,109.59c-1.06-.53-2.18-1.34-3.24-2.41-1-1-1.95-2.24-2.78-3.68-.3-.52-.95-.69-1.47-.4-.52.3-.69.95-.4,1.47.93,1.61,2,2.99,3.13,4.13,1.23,1.24,2.54,2.19,3.81,2.82.53.26,1.18.04,1.44-.49.26-.53.04-1.18-.49-1.44ZM111.63,92.61c-1.98,0-3.58,1.6-3.58,3.58s1.6,3.58,3.58,3.58,3.58-1.61,3.58-3.58-1.6-3.58-3.58-3.58ZM111.63,92.61c-1.98,0-3.58,1.6-3.58,3.58s1.6,3.58,3.58,3.58,3.58-1.61,3.58-3.58-1.6-3.58-3.58-3.58ZM93.45,109.59c-1.06-.53-2.18-1.34-3.24-2.41-1-1-1.95-2.24-2.78-3.68-.3-.52-.95-.69-1.47-.4-.52.3-.69.95-.4,1.47.93,1.61,2,2.99,3.13,4.13,1.23,1.24,2.54,2.19,3.81,2.82.53.26,1.18.04,1.44-.49.26-.53.04-1.18-.49-1.44ZM79.44,84.72c-.68,0-1.23.55-1.23,1.23s.55,1.23,1.23,1.23,1.23-.55,1.23-1.23-.55-1.23-1.23-1.23ZM79.44,84.72c-.68,0-1.23.55-1.23,1.23s.55,1.23,1.23,1.23,1.23-.55,1.23-1.23-.55-1.23-1.23-1.23ZM79.44,84.72c-.68,0-1.23.55-1.23,1.23s.55,1.23,1.23,1.23,1.23-.55,1.23-1.23-.55-1.23-1.23-1.23ZM93.45,109.59c-1.06-.53-2.18-1.34-3.24-2.41-1-1-1.95-2.24-2.78-3.68-.3-.52-.95-.69-1.47-.4-.52.3-.69.95-.4,1.47.93,1.61,2,2.99,3.13,4.13,1.23,1.24,2.54,2.19,3.81,2.82.53.26,1.18.04,1.44-.49.26-.53.04-1.18-.49-1.44ZM111.63,92.61c-1.98,0-3.58,1.6-3.58,3.58s1.6,3.58,3.58,3.58,3.58-1.61,3.58-3.58-1.6-3.58-3.58-3.58ZM111.63,92.61c-1.98,0-3.58,1.6-3.58,3.58s1.6,3.58,3.58,3.58,3.58-1.61,3.58-3.58-1.6-3.58-3.58-3.58ZM93.45,109.59c-1.06-.53-2.18-1.34-3.24-2.41-1-1-1.95-2.24-2.78-3.68-.3-.52-.95-.69-1.47-.4-.52.3-.69.95-.4,1.47.93,1.61,2,2.99,3.13,4.13,1.23,1.24,2.54,2.19,3.81,2.82.53.26,1.18.04,1.44-.49.26-.53.04-1.18-.49-1.44ZM79.44,84.72c-.68,0-1.23.55-1.23,1.23s.55,1.23,1.23,1.23,1.23-.55,1.23-1.23-.55-1.23-1.23-1.23ZM124.37,84.25c-.05-.14-.11-.29-.2-.42-3.78-5.69-9.74-9.29-16.15-10.69-5.78-1.27-11.96-.75-17.23,1.66V6.52c.03-1.15.04-1.43-.96-2.64-.38-.46-.87-.88-1.43-1.24-1.92-1.24-4.87-1.9-7.72-1.9s-5.8.68-7.53,2.12c-.42.34-.78.74-1.07,1.19-.7,1.08-.7,1.34-.68,2.32v72.56h.01v.02c.03,2.69.16,5.18.39,7.52v.04c.24,2.38.57,4.6,1.02,6.7,1.34,6.29,3.88,12.55,7.86,17.54,3.45,4.33,7.97,7.7,13.71,9.32,5.37,1.52,11.06,1.27,16.3-.53,5.19-1.77,9.93-5.07,13.48-9.65.82-1.06,1.22-7.04,1.2-12.95-.02-5.38-.35-10.88-1-12.69ZM74.61,5.69c.11-.18.27-.35.47-.51,1.18-.97,3.35-1.43,5.61-1.43s4.65.49,6.08,1.42c.3.19.56.41.75.64.28.34.28.4.27.63l-.02.59v.3h-13.34v-.64c0-.17-.01-.09-.01-.37,0-.25,0-.32.19-.63ZM109.73,116.7h0c-4.67,1.6-9.74,1.83-14.51.48-5.08-1.44-9.09-4.44-12.17-8.3-3.67-4.6-6.02-10.42-7.27-16.29-.43-2.01-.75-4.12-.97-6.37v-.04c-.22-2.26-.35-4.67-.38-7.25h.01V10.04h13.35v67.24c0,.84.68,1.51,1.51,1.51.31,0,.6-.1.84-.26,5.04-2.96,11.36-3.74,17.26-2.45,5.46,1.19,10.55,4.18,13.89,8.85-.35.19-.58.56-.58.98v21.35c0,.53.37.97.86,1.09-3.15,3.95-7.31,6.79-11.83,8.35ZM111.63,92.61c-1.98,0-3.58,1.6-3.58,3.58s1.6,3.58,3.58,3.58,3.58-1.61,3.58-3.58-1.6-3.58-3.58-3.58ZM93.45,109.59c-1.06-.53-2.18-1.34-3.24-2.41-1-1-1.95-2.24-2.78-3.68-.3-.52-.95-.69-1.47-.4-.52.3-.69.95-.4,1.47.93,1.61,2,2.99,3.13,4.13,1.23,1.24,2.54,2.19,3.81,2.82.53.26,1.18.04,1.44-.49.26-.53.04-1.18-.49-1.44ZM79.44,84.72c-.68,0-1.23.55-1.23,1.23s.55,1.23,1.23,1.23,1.23-.55,1.23-1.23-.55-1.23-1.23-1.23ZM79.44,84.72c-.68,0-1.23.55-1.23,1.23s.55,1.23,1.23,1.23,1.23-.55,1.23-1.23-.55-1.23-1.23-1.23ZM93.45,109.59c-1.06-.53-2.18-1.34-3.24-2.41-1-1-1.95-2.24-2.78-3.68-.3-.52-.95-.69-1.47-.4-.52.3-.69.95-.4,1.47.93,1.61,2,2.99,3.13,4.13,1.23,1.24,2.54,2.19,3.81,2.82.53.26,1.18.04,1.44-.49.26-.53.04-1.18-.49-1.44ZM111.63,92.61c-1.98,0-3.58,1.6-3.58,3.58s1.6,3.58,3.58,3.58,3.58-1.61,3.58-3.58-1.6-3.58-3.58-3.58ZM111.63,92.61c-1.98,0-3.58,1.6-3.58,3.58s1.6,3.58,3.58,3.58,3.58-1.61,3.58-3.58-1.6-3.58-3.58-3.58ZM93.45,109.59c-1.06-.53-2.18-1.34-3.24-2.41-1-1-1.95-2.24-2.78-3.68-.3-.52-.95-.69-1.47-.4-.52.3-.69.95-.4,1.47.93,1.61,2,2.99,3.13,4.13,1.23,1.24,2.54,2.19,3.81,2.82.53.26,1.18.04,1.44-.49.26-.53.04-1.18-.49-1.44ZM79.44,84.72c-.68,0-1.23.55-1.23,1.23s.55,1.23,1.23,1.23,1.23-.55,1.23-1.23-.55-1.23-1.23-1.23Z"/>
    <path class="cls-5" d="M87.79,6.44l-.02.59v.3h-13.34v-.64c0-.17-.01-.09-.01-.37,0-.25,0-.32.19-.63.11-.18.27-.35.47-.51,1.18-.97,3.35-1.43,5.61-1.43s4.65.49,6.08,1.42c.3.19.56.41.75.64.28.34.28.4.27.63Z"/>
    <path class="cls-4" d="M120.7,107.26v-21.35c0-.42.23-.79.58-.98-3.34-4.67-8.43-7.66-13.89-8.85-5.9-1.29-12.22-.51-17.26,2.45-.24.16-.53.26-.84.26-.83,0-1.51-.67-1.51-1.51V10.04h-13.35v68.89h-.01c.03,2.58.16,4.99.38,7.25v.04c.22,2.25.54,4.36.97,6.37,1.25,5.87,3.6,11.69,7.27,16.29,3.08,3.86,7.09,6.86,12.17,8.3,4.77,1.35,9.84,1.12,14.51-.48h.01c4.52-1.56,8.68-4.4,11.83-8.35-.49-.12-.86-.56-.86-1.09ZM79.44,87.18c-.68,0-1.23-.55-1.23-1.23s.55-1.23,1.23-1.23,1.23.55,1.23,1.23-.55,1.23-1.23,1.23ZM93.94,111.03c-.26.53-.91.75-1.44.49-1.27-.63-2.58-1.58-3.81-2.82-1.13-1.14-2.2-2.52-3.13-4.13-.29-.52-.12-1.17.4-1.47.52-.29,1.17-.12,1.47.4.83,1.44,1.78,2.68,2.78,3.68,1.06,1.07,2.18,1.88,3.24,2.41.53.26.75.91.49,1.44ZM111.63,99.77c-1.98,0-3.58-1.6-3.58-3.58s1.6-3.58,3.58-3.58,3.58,1.6,3.58,3.58-1.6,3.58-3.58,3.58Z"/>
  </g>
  <g>
    <path class="cls-5" d="M27.28,119.57c-13.46,0-24.41-10.95-24.41-24.41V26.7C2.87,13.24,13.82,2.29,27.28,2.29h6.97v117.28h-6.97Z"/>
    <path class="cls-1" d="M32.75,3.79v114.28h-5.47c-12.63,0-22.91-10.28-22.91-22.91V26.7C4.37,14.07,14.64,3.79,27.28,3.79h5.47M35.75.79h-8.47C12.97.79,1.37,12.39,1.37,26.7v68.46c0,14.31,11.6,25.91,25.91,25.91h8.47V.79h0Z"/>
  </g>
  <g>
    <rect class="cls-5" x="34.21" y="21.34" width="31.04" height="98.23"/>
    <path class="cls-1" d="M63.75,22.84v95.23h-28.04V22.84h28.04M66.75,19.84h-34.04v101.23h34.04V19.84h0Z"/>
  </g>
  <g>
    <rect class="cls-5" x="34.21" y="2.29" width="31.04" height="18.97"/>
    <path class="cls-1" d="M63.75,3.79v15.97h-28.04V3.79h28.04M66.75.79h-34.04v21.97h34.04V.79h0Z"/>
  </g>
  <path class="cls-2" d="M320,95.96c12.82-15.69,25.14-30.9,30.7-49.92.97-3.12,1.37-9.07-3.1-8.2-.24-.39-.63-.82-1.17-1.29-14.22,6.77-24.74,25.49-30.12,40.14-4.19,8.74-2.75,19.25-10.78,24.9.01,0,.01.03.02.04-5.48,5.42-11.94,10-19.42,11.62-6.07-.54-7.03-6.53-4.57-11.07,5.23-4.94,11.13-10.04,17.23-12.84,3.69-1.7,4.18-5.12,3.87-8.67-1.89-7.83-31.39,16.73-33.58,20.45l-.52.47s.01.02.01.03c-4.05,3.69-16.85,5.95-15.01-2.76,6.07-6.69,11.93-12.14,13.45-20.29-.19-4.66-2.55-8.75-7.71-7.27-9.37,4.02-14.59,15.61-15.59,25.19-1.97,1.57-3.48,3.13-4.63,5.1.01,0,.01.02.02.03-4.06,3.69-16.82,5.96-15.02-2.76,6.09-6.67,11.93-12.14,13.46-20.29-.2-4.66-2.55-8.75-7.71-7.27-9.37,4.01-14.6,15.62-15.59,25.19-1.97,1.57-3.49,3.13-4.63,5.1-5.49-2.92-5.28-16.75-13.86-13.21-6.36,5.68-8.41,17.04-11.22,24.14-2.93,6.38-2.48,11.33-4.98,16.96.92-10.89,4.82-25.88,7.85-35.8,1.84-8.29,12.34-28.08,5.75-29.77-3.42.84-4.3,6.26-5.86,8.79-4.6,10.01-11.22,20.8-18.64,28.89.01,0,.01.02.01.03-2.13.9-7.27,8.14-9.5,6.71,2.34-9.42,8.97-22.56,5.13-30.97-6.69-4.92-11.86,5.84-16.41,9.05-3.39,3.13-5.74,6.23-9.26,9.14-2.11,1.37-5.67,3.48-6.65,6.04.97,2.05,1.83,3.61,2.35,5.39,3.73-5.39,10.57-10.29,13.3-12.95,10.05-10.12,5.46,5.52,4.83,10.46-.46,1.73-.93,2.23-1.64.7-1.63-2.55-5.96.64-5.65,3.14.57,3.63-.07,8.69,2.17,11.95-.06,1.07.15,1.98,1.17,2.29,2.61-.93,5.07-1.31,6.74-3.87,2.71-.75,4.91-3.71,6.85-5.22,5.73-2.69,9.94-8.48,14.36-11.95-.79,13.17-5.29,27.4-4.75,40.43-.03,11.19,7.45,6.12,8.99-1.17,5.11-12.99,7-28.96,15.33-39.85,1.66.3,5.13,5.57,6.91,5.75,3.78,1.86,5.71,1.34,9.14.29l-.04-.09c5.66-7.2,2.95,13.25,18.32,6.71,4.73-.18,8.71-4.37,12.37-7.94,4.6-2.57,2.47,13.81,17.11,7.94,4.29-.23,7.46-3.26,11.07-6.62-2.63,6.85,3.42,13.45,10.25,13.95,11.09.34,18.49-8.08,26.78-13.95,0-.01,0-.02-.01-.04.55-.35.91-.71,1.24-1.13,1.53.38-.33,2.73.06,3.92.62,3.21-.21,8.95,2.96,11.34,9.11,2.82,12.53-11.33,18.02-16.14.86-.1,1.14.8,2.72,3.31,4.31,6.78,13.21,2.36,18.02-1.26-.77-1.84-1.64-3.65-2.35-5.39-9.51,3.73-8.71-5.39-11.54-11.66-1.29-2.11-3.63.09-5.27.53-5.49,5.07-7.31,16.57-13.3,21.27-2.09-4.27.68-10.45,1.52-15.77ZM324.19,80.32c2.82-10.57,10.13-22.18,16.85-30.56,8.9-9.21-3.53,13.73-4.4,15.3-3.88,6.88-8.08,12.12-12.95,17.54l-.29-.29c.08-.19.34-.86.79-1.99ZM222.88,91.36c-1.54-2.11,7.65-14.01,5.95-6-1.01,1.29-4.4,6.77-5.95,6ZM252.35,91.36c-1.15-1.23,5.26-12.21,6.3-7.64.4,1.44-5,8.62-6.3,7.64Z"/>
</svg>