<?xml version="1.0" encoding="UTF-8"?>
<svg id="Layer_1" data-name="Layer 1" xmlns="http://www.w3.org/2000/svg" version="1.1" viewBox="0 0 661.84 162.41">
  <defs>
    <style>
      .cls-1 {
        fill: #090909;
      }

      .cls-1, .cls-2, .cls-3 {
        stroke: #fff;
        stroke-miterlimit: 10;
        stroke-width: 2px;
      }

      .cls-2 {
        fill: #7653a2;
      }

      .cls-3 {
        fill: #fff;
      }
    </style>
  </defs>
  <path class="cls-2" d="M1.59,32.29C5.48,17.25,14.3,6.77,29.54,2.41c2.94-.84,6.08-1.34,9.14-1.35,39.98-.09,79.95-.06,119.93-.05.69,0,1.39.09,2.78.18v4.46c0,38.57.02,77.15,0,115.72-.02,23.37-16.52,39.92-39.89,39.95-38.57.05-77.14-.03-115.7.09-3.62.01-4.79-.83-4.78-4.66.15-38.71.09-77.43.1-116.14,0-2.25.15-4.49.24-6.74.09-.53.17-1.06.26-1.58ZM73.95,107.52c-.07-4.29,1.83-6.27,5.52-7.26,3.81-1.02,4.63-3.49,2.69-7.2-1.96-3.74-4.35-7.25-6.22-11.04-.94-1.91-1.61-4.2-1.57-6.3.2-10.91-2.9-20.6-10.38-28.61-9.09-9.72-20.47-13.2-33.76-11.9v102c5.13,0,10.03,0,14.92,0,7.05,0,7.68-.53,7.95-7.62.14-3.72,1.88-5.38,5.53-5.32,3.1.05,6.2.09,9.29-.02,4.68-.16,6.22-2.1,5.71-7.5-2.17,0-4.66.62-6.55-.18-1.84-.77-4-2.79-4.36-4.6-.51-2.54,1.51-4.39,4.41-4.45,2.1-.05,4.2,0,6.81,0ZM91.75,113.18l-1.32.49c-.89-4.81-4.1-5.04-7.51-4.45-.88.15-1.81,1.19-2.26,2.06-.22.41.58,1.98.98,2.01,5.29.31,5.1,5.2,7.15,8.24.77,1.14,2.04,1.94,3.08,2.9.89-1.13,2.02-2.16,2.6-3.43.99-2.18,1.64-4.51,2.43-6.78,2,4.94,2.9,9.76,4.22,14.45.42,1.48,1.98,2.64,3.01,3.94.9-1.4,2.25-2.69,2.63-4.23.87-3.54,1.25-7.2,1.87-10.8.42-2.46.92-4.9,1.39-7.35.36.02.72.04,1.08.06.75,3.53,1.31,7.11,2.33,10.56.4,1.35,1.82,2.39,2.78,3.57.91-1.09,2.23-2.04,2.66-3.3,1.15-3.35,1.92-6.82,2.55-9.16,3.2.74,5.67,1.53,8.19,1.75.79.07,1.71-1.39,2.58-2.15-.81-.78-1.58-1.61-2.45-2.33-1.27-1.04-2.82-1.82-3.86-3.05-.97-1.14-1.27-2.84-2.18-4.07-.66-.89-1.92-2.05-2.73-1.92-.91.14-1.91,1.48-2.34,2.51-.85,2.06-1.34,4.27-1.98,6.42-1.82-4.41-2.59-8.7-3.77-12.87-.48-1.68-1.86-3.11-2.83-4.65-.96,1.52-2.43,2.94-2.78,4.59-1.29,6.15-2.21,12.38-3.26,18.58-1.81-3.87-2.6-7.8-3.7-11.65-.33-1.16-1.51-2.08-2.3-3.12-1.02.96-2.5,1.74-2.97,2.92-1.32,3.32-2.22,6.81-3.29,10.24Z"/>
  <path class="cls-1" d="M271.98,114.5c-.75,2.16-1.3,3.72-1.9,5.46h-14.67V41.81h18.76v24.87c4.2-1.51,7.93-3.58,11.87-4.14,8.59-1.21,16.66,3.3,20.28,11.48,5.6,12.65,5.42,25.35-2.08,37.27-7.24,11.51-19.78,13.21-30.31,4.54-.48-.4-1.03-.71-1.96-1.34ZM274.5,92.47c0,2.33.21,4.68-.05,6.98-.48,4.25,1.98,5.57,5.5,6.02,4.65.59,8.3-1.32,8.98-5.85.77-5.15.79-10.56.15-15.74-.54-4.42-4.06-6.42-8.5-5.5-3.94.81-6.58,2.98-6.12,7.61.21,2.14.04,4.32.03,6.48Z"/>
  <path class="cls-1" d="M390,117.01v22.94h-18.85v-75.33c8.15-2.4,14.99-1.09,17.34,3.66,1.66-1.03,3.26-2.11,4.94-3.05,11.42-6.34,24.42-1.93,29.33,10.15,4.05,9.97,4.14,20.2.32,30.23-5.62,14.73-18.91,19.43-33.07,11.4ZM390.29,92.79c0,2.5-.42,5.09.14,7.46.41,1.75,1.76,3.96,3.29,4.65,4.67,2.09,9.84.04,10.68-4.87.94-5.43.82-11.21.11-16.7-.55-4.24-4.28-5.84-8.42-4.88-3.68.85-6.27,2.93-5.84,7.35.22,2.31.04,4.66.04,6.99Z"/>
  <path class="cls-1" d="M608.52,41.73h19.05v26.84c1.52-1,3.04-2.05,4.6-3.03,12.44-7.87,26.61-2.21,28.01,12.36,1.32,13.8.28,27.83.28,42.02h-18.74c0-4.97,0-9.9,0-14.84-.01-6.33.04-12.66-.1-18.98-.09-3.68-.72-7.18-5.64-7.16-4.67.02-8.37,3.39-8.39,7.74-.03,9.32,0,18.65,0,27.97v5.23h-19.05V41.73Z"/>
  <path class="cls-1" d="M485.38,97.85h-32.38c1.33,8.99,10.23,11.11,23.81,5.78,1.93,3.52,3.91,7.1,5.86,10.65-8.82,8.15-26.23,9.53-36.44,3.01-10.98-7.01-15.79-21.94-11.43-35.43,4.02-12.44,15.01-20.17,27.61-19.42,10.01.59,18.14,6.33,20.66,15.96,1.59,6.08,1.56,12.58,2.31,19.47ZM468.1,84.95c-.38-6.01-2.17-7.83-7.45-7.77-4.97.05-7.78,2.84-7.88,7.77h15.34Z"/>
  <path class="cls-1" d="M543.62,98.05h-31.48c2.26,9.01,10.71,10.95,23.84,5.56,2.03,3.59,4.1,7.25,6.15,10.87-12.96,9.83-32.45,9.01-41.8-1.51-10.67-12-10.37-31.18.92-42.77,7.25-7.44,16.3-9.58,26.15-6.76,9.41,2.68,14.72,9.57,16.1,19.05.7,4.82.12,9.83.12,15.55ZM511.49,84.87h16.3c-.53-4.35-1.77-7.37-6.53-7.65-5.36-.31-7.88,1.46-9.77,7.65Z"/>
  <path class="cls-1" d="M361.3,70.05c-2.92,3.86-5.61,7.41-8.11,10.71-3.8-1.47-7.09-3.24-10.58-3.87-1-.18-2.12.27-3.26.84-1.39.69-1.82,2.48-.88,3.7.62.81,1.29,1.53,2.11,1.96,3.66,1.9,7.74,2.99,11.45,4.82,6.01,2.96,9.46,7.79,9.33,14.71-.13,7.17-3.57,12.31-9.88,15.57-10.45,5.4-25.89,3.32-35.94-5.05,2.64-3.72,5.3-7.48,8-11.29,3.7,1.56,7.09,3.19,10.63,4.41,1.65.57,3.67.75,5.35.35,1.35-.32,2.96-1.56,3.45-2.79.28-.71-1.2-2.68-2.31-3.27-3.07-1.63-6.4-2.75-9.56-4.22-10.19-4.75-14.18-11.09-12.47-19.61,1.68-8.36,9.54-14.18,19.64-14.68,8.52-.43,16.08,1.88,23.03,7.72Z"/>
  <path class="cls-1" d="M598.5,68.58c-2.91,3.95-5.66,7.68-8.37,11.36-9.08-2.76-12.63-2.08-15.91,2.93-3.47,5.31-3.05,14.68.88,19.32,3.62,4.27,8.14,4.49,16.83.58,2.32,3.88,4.67,7.83,7,11.73-9.74,9.41-28.78,9.14-38.4-.37-11.17-11.05-11.55-31.42-.79-42.71,10.19-10.71,28.48-12.24,38.76-2.84Z"/>
  <path class="cls-1" d="M189.03,41.75h19.47c0,2.85,0,5.46,0,8.07,0,16.46,0,32.92,0,49.39,0,3.04-.25,6.17,4.04,6.76.6.08,1.33,1.37,1.49,2.2.7,3.74,1.22,7.51,1.79,11.19-17.08,6.46-26.42-2.4-26.59-15.38-.21-16.46-.16-32.92-.21-49.38-.01-4.14,0-8.27,0-12.84Z"/>
  <path class="cls-1" d="M222.99,64.08h18.76v55.87h-18.76v-55.87Z"/>
  <path class="cls-1" d="M232.41,56.74c-6.43,0-10.88-3.99-10.85-9.74.03-5.64,4.72-9.74,11.01-9.64,6.12.1,10.48,4.03,10.6,9.55.13,5.72-4.36,9.82-10.76,9.83Z"/>
  <path class="cls-3" d="M73.87,107.81c-2.61,0-4.71-.04-6.81,0-2.91.07-4.92,1.91-4.41,4.45.36,1.81,2.52,3.83,4.36,4.6,1.89.79,4.37.18,6.55.18.51,5.39-1.03,7.34-5.71,7.5-3.09.11-6.2.07-9.29.02-3.64-.05-5.38,1.61-5.53,5.32-.27,7.09-.91,7.61-7.95,7.62-4.89,0-9.79,0-14.92,0V35.51c13.28-1.3,24.66,2.18,33.76,11.9,7.49,8,10.59,17.69,10.38,28.61-.04,2.1.63,4.39,1.57,6.3,1.86,3.78,4.26,7.3,6.22,11.04,1.94,3.7,1.12,6.18-2.69,7.2-3.68.99-5.59,2.97-5.52,7.26Z"/>
  <path class="cls-3" d="M91.67,113.46c1.07-3.42,1.97-6.91,3.29-10.24.47-1.18,1.95-1.96,2.97-2.92.79,1.03,1.97,1.95,2.3,3.12,1.1,3.84,1.89,7.78,3.7,11.65,1.06-6.2,1.97-12.43,3.26-18.58.35-1.65,1.82-3.07,2.78-4.59.97,1.54,2.35,2.97,2.83,4.65,1.18,4.17,1.95,8.47,3.77,12.87.64-2.15,1.12-4.36,1.98-6.42.43-1.04,1.43-2.37,2.34-2.51.81-.13,2.08,1.03,2.73,1.92.91,1.23,1.2,2.92,2.18,4.07,1.04,1.22,2.59,2,3.86,3.05.87.71,1.64,1.55,2.45,2.33-.86.76-1.79,2.22-2.58,2.15-2.52-.22-4.99-1.02-8.19-1.75-.63,2.33-1.4,5.81-2.55,9.16-.43,1.26-1.75,2.21-2.66,3.3-.96-1.18-2.38-2.22-2.78-3.57-1.02-3.45-1.59-7.03-2.33-10.56-.36-.02-.72-.04-1.08-.06-.46,2.45-.96,4.89-1.39,7.35-.62,3.6-1,7.26-1.87,10.8-.38,1.53-1.72,2.82-2.63,4.23-1.04-1.3-2.6-2.46-3.01-3.94-1.32-4.7-2.22-9.51-4.22-14.45-.79,2.27-1.44,4.6-2.43,6.78-.58,1.27-1.72,2.3-2.6,3.43-1.04-.96-2.31-1.76-3.08-2.9-2.04-3.03-1.85-7.92-7.15-8.24-.4-.02-1.2-1.59-.98-2.01.46-.87,1.39-1.91,2.26-2.06,3.41-.59,6.62-.36,7.51,4.45l1.32-.49Z"/>
</svg>