<?xml version="1.0" encoding="UTF-8"?>
<svg id="Layer_1" data-name="Layer 1" xmlns="http://www.w3.org/2000/svg" version="1.1" viewBox="0 0 356.7 151.9">
  <defs>
    <style>
      .cls-1 {
        fill: #000;
      }

      .cls-1, .cls-2, .cls-3, .cls-4, .cls-5 {
        stroke-width: 0px;
      }

      .cls-2 {
        fill: #4271d6;
      }

      .cls-3 {
        fill: #010101;
      }

      .cls-4 {
        fill: #fff;
      }

      .cls-5 {
        fill: #6d93e0;
      }
    </style>
  </defs>
  <g>
    <path class="cls-3" d="M94.2,111.1h0c-1.1-.5-2.2-1.3-3.2-2.4-1-1-1.9-2.2-2.8-3.7-.3-.5-.9-.7-1.5-.4-.5.3-.7.9-.4,1.5.9,1.6,2,3,3.1,4.1s2.5,2.2,3.8,2.8c.5.3,1.2,0,1.4-.5s0-1.2-.5-1.4ZM112.5,94.1c-2,0-3.6,1.6-3.6,3.6s1.6,3.6,3.6,3.6,3.6-1.6,3.6-3.6-1.6-3.6-3.6-3.6ZM112.5,94.1c-2,0-3.6,1.6-3.6,3.6s1.6,3.6,3.6,3.6,3.6-1.6,3.6-3.6-1.6-3.6-3.6-3.6ZM94.2,111.1h0c-1.1-.5-2.2-1.3-3.2-2.4-1-1-1.9-2.2-2.8-3.7-.3-.5-.9-.7-1.5-.4-.5.3-.7.9-.4,1.5.9,1.6,2,3,3.1,4.1s2.5,2.2,3.8,2.8c.5.3,1.2,0,1.4-.5s0-1.2-.5-1.4ZM80.3,86.2c-.7,0-1.2.6-1.2,1.2s.6,1.2,1.2,1.2,1.2-.6,1.2-1.2-.6-1.2-1.2-1.2ZM80.3,86.2c-.7,0-1.2.6-1.2,1.2s.6,1.2,1.2,1.2,1.2-.6,1.2-1.2-.6-1.2-1.2-1.2ZM80.3,86.2c-.7,0-1.2.6-1.2,1.2s.6,1.2,1.2,1.2,1.2-.6,1.2-1.2-.6-1.2-1.2-1.2ZM94.2,111.1h0c-1.1-.5-2.2-1.3-3.2-2.4-1-1-1.9-2.2-2.8-3.7-.3-.5-.9-.7-1.5-.4-.5.3-.7.9-.4,1.5.9,1.6,2,3,3.1,4.1s2.5,2.2,3.8,2.8c.5.3,1.2,0,1.4-.5s0-1.2-.5-1.4ZM112.5,94.1c-2,0-3.6,1.6-3.6,3.6s1.6,3.6,3.6,3.6,3.6-1.6,3.6-3.6-1.6-3.6-3.6-3.6ZM112.5,94.1c-2,0-3.6,1.6-3.6,3.6s1.6,3.6,3.6,3.6,3.6-1.6,3.6-3.6-1.6-3.6-3.6-3.6ZM94.2,111.1h0c-1.1-.5-2.2-1.3-3.2-2.4-1-1-1.9-2.2-2.8-3.7-.3-.5-.9-.7-1.5-.4-.5.3-.7.9-.4,1.5.9,1.6,2,3,3.1,4.1s2.5,2.2,3.8,2.8c.5.3,1.2,0,1.4-.5s0-1.2-.5-1.4ZM80.3,86.2c-.7,0-1.2.6-1.2,1.2s.6,1.2,1.2,1.2,1.2-.6,1.2-1.2-.6-1.2-1.2-1.2ZM80.3,86.2c-.7,0-1.2.6-1.2,1.2s.6,1.2,1.2,1.2,1.2-.6,1.2-1.2-.6-1.2-1.2-1.2ZM94.2,111.1h0c-1.1-.5-2.2-1.3-3.2-2.4-1-1-1.9-2.2-2.8-3.7-.3-.5-.9-.7-1.5-.4-.5.3-.7.9-.4,1.5.9,1.6,2,3,3.1,4.1s2.5,2.2,3.8,2.8c.5.3,1.2,0,1.4-.5s0-1.2-.5-1.4ZM112.5,94.1c-2,0-3.6,1.6-3.6,3.6s1.6,3.6,3.6,3.6,3.6-1.6,3.6-3.6-1.6-3.6-3.6-3.6ZM112.5,94.1c-2,0-3.6,1.6-3.6,3.6s1.6,3.6,3.6,3.6,3.6-1.6,3.6-3.6-1.6-3.6-3.6-3.6ZM94.2,111.1h0c-1.1-.5-2.2-1.3-3.2-2.4-1-1-1.9-2.2-2.8-3.7-.3-.5-.9-.7-1.5-.4-.5.3-.7.9-.4,1.5.9,1.6,2,3,3.1,4.1s2.5,2.2,3.8,2.8c.5.3,1.2,0,1.4-.5s0-1.2-.5-1.4ZM80.3,86.2c-.7,0-1.2.6-1.2,1.2s.6,1.2,1.2,1.2,1.2-.6,1.2-1.2-.6-1.2-1.2-1.2ZM125.3,85.7c0,0,0-.3-.2-.4-3.8-5.7-9.7-9.3-16.2-10.7-5.8-1.3-12-.8-17.2,1.7V8c0-1.2,0-1.4-1-2.6-.4-.5-.9-.9-1.4-1.2-1.9-1.2-4.9-1.9-7.7-1.9s-5.8.7-7.5,2.1c-.4.3-.8.7-1.1,1.2-.7,1.1-.7,1.3-.7,2.3v72.6c0,2.7.2,5.2.4,7.5.2,2.4.6,4.6,1,6.7,1.3,6.3,3.9,12.6,7.9,17.5,3.4,4.3,8,7.7,13.7,9.3,5.4,1.5,11.1,1.3,16.3-.5,5.2-1.8,9.9-5.1,13.5-9.7.8-1.1,1.2-7,1.2-12.9s-.3-10.9-1-12.7ZM75.5,8.2v-1c.1-.2.3-.3.5-.5,1.1-.9,2.9-1.3,4.9-1.4.3,0,.6,0,.8,0s.5,0,.8,0c2,.1,4,.6,5.2,1.4.3.2.6.4.8.6.3.3.3.4.3.6v.9h-13.3v-.6ZM116.9,114.7c-2,1.4-4.1,2.5-6.4,3.2-4.7,1.6-9.6,2-14.4.7-5.1-1.4-9.1-4.4-12.2-8.3-3.7-4.6-6-10.4-7.3-16.3-.4-2-.8-4.1-1-6.4-.2-2.3-.3-4.7-.4-7.3V11.5h13.3v67.2c0,.8.7,1.5,1.5,1.5s.6,0,.8-.3c5-3,11.4-3.7,17.3-2.4,5.5,1.2,10.6,4.2,13.9,8.8-.3.2-.6.6-.6,1v21.3c0,.5.4,1,.9,1.1-1.6,2-3.4,3.7-5.4,5.1ZM112.5,94.1c-2,0-3.6,1.6-3.6,3.6s1.6,3.6,3.6,3.6,3.6-1.6,3.6-3.6-1.6-3.6-3.6-3.6ZM94.2,111.1h0c-1.1-.5-2.2-1.3-3.2-2.4-1-1-1.9-2.2-2.8-3.7-.3-.5-.9-.7-1.5-.4-.5.3-.7.9-.4,1.5.9,1.6,2,3,3.1,4.1s2.5,2.2,3.8,2.8c.5.3,1.2,0,1.4-.5s0-1.2-.5-1.4ZM80.3,86.2c-.7,0-1.2.6-1.2,1.2s.6,1.2,1.2,1.2,1.2-.6,1.2-1.2-.6-1.2-1.2-1.2ZM80.3,86.2c-.7,0-1.2.6-1.2,1.2s.6,1.2,1.2,1.2,1.2-.6,1.2-1.2-.6-1.2-1.2-1.2ZM94.2,111.1h0c-1.1-.5-2.2-1.3-3.2-2.4-1-1-1.9-2.2-2.8-3.7-.3-.5-.9-.7-1.5-.4-.5.3-.7.9-.4,1.5.9,1.6,2,3,3.1,4.1s2.5,2.2,3.8,2.8c.5.3,1.2,0,1.4-.5s0-1.2-.5-1.4ZM112.5,94.1c-2,0-3.6,1.6-3.6,3.6s1.6,3.6,3.6,3.6,3.6-1.6,3.6-3.6-1.6-3.6-3.6-3.6ZM112.5,94.1c-2,0-3.6,1.6-3.6,3.6s1.6,3.6,3.6,3.6,3.6-1.6,3.6-3.6-1.6-3.6-3.6-3.6ZM94.2,111.1h0c-1.1-.5-2.2-1.3-3.2-2.4-1-1-1.9-2.2-2.8-3.7-.3-.5-.9-.7-1.5-.4-.5.3-.7.9-.4,1.5.9,1.6,2,3,3.1,4.1s2.5,2.2,3.8,2.8c.5.3,1.2,0,1.4-.5s0-1.2-.5-1.4ZM80.3,86.2c-.7,0-1.2.6-1.2,1.2s.6,1.2,1.2,1.2,1.2-.6,1.2-1.2-.6-1.2-1.2-1.2ZM80.3,86.2c-.7,0-1.2.6-1.2,1.2s.6,1.2,1.2,1.2,1.2-.6,1.2-1.2-.6-1.2-1.2-1.2ZM94.2,111.1h0c-1.1-.5-2.2-1.3-3.2-2.4-1-1-1.9-2.2-2.8-3.7-.3-.5-.9-.7-1.5-.4-.5.3-.7.9-.4,1.5.9,1.6,2,3,3.1,4.1s2.5,2.2,3.8,2.8c.5.3,1.2,0,1.4-.5s0-1.2-.5-1.4ZM112.5,94.1c-2,0-3.6,1.6-3.6,3.6s1.6,3.6,3.6,3.6,3.6-1.6,3.6-3.6-1.6-3.6-3.6-3.6ZM112.5,94.1c-2,0-3.6,1.6-3.6,3.6s1.6,3.6,3.6,3.6,3.6-1.6,3.6-3.6-1.6-3.6-3.6-3.6ZM94.2,111.1h0c-1.1-.5-2.2-1.3-3.2-2.4-1-1-1.9-2.2-2.8-3.7-.3-.5-.9-.7-1.5-.4-.5.3-.7.9-.4,1.5.9,1.6,2,3,3.1,4.1s2.5,2.2,3.8,2.8c.5.3,1.2,0,1.4-.5s0-1.2-.5-1.4ZM80.3,86.2c-.7,0-1.2.6-1.2,1.2s.6,1.2,1.2,1.2,1.2-.6,1.2-1.2-.6-1.2-1.2-1.2Z"/>
    <path class="cls-2" d="M88.8,7.9v.9h-13.3v-1.6c.1-.2.3-.3.5-.5,1.1-.9,2.9-1.3,4.9-1.4.3,0,.6,0,.8,0s.5,0,.8,0c2,.1,4,.6,5.2,1.4.3.2.6.4.8.6.3.3.3.4.3.6Z"/>
    <path class="cls-5" d="M122.4,109.7c-.5,0-.9-.6-.9-1.1v-21.3c0-.4.3-.8.6-1-3.3-4.6-8.4-7.6-13.9-8.8-5.9-1.3-12.3-.6-17.3,2.4-.2.3,0,.3-.8.3s-1.5-.7-1.5-1.5V11.5h-13.3v68.9c.1,2.6.2,5,.4,7.3s.6,4.4,1,6.4c1.3,5.9,3.6,11.7,7.3,16.3,3.1,3.9,7.1,6.9,12.2,8.3,4.8,1.3,9.7.9,14.4-.7h0c4.5-1.5,8.6-4.4,11.8-8.3ZM80.4,88.6c-.6,0-1.2-.6-1.2-1.2s.5-1.2,1.2-1.2,1.2.6,1.2,1.2-.6,1.2-1.2,1.2ZM94.8,112.5c-.2.5-.9.8-1.4.5-1.3-.6-2.6-1.6-3.8-2.8s-2.2-2.5-3.1-4.1c-.3-.6,0-1.2.4-1.5.6-.3,1.2-.1,1.5.4.9,1.5,1.8,2.7,2.8,3.7,1,1.1,2.1,1.9,3.2,2.4h-.1c.5.2.7.9.5,1.4ZM112.6,101.3c-2,0-3.6-1.6-3.6-3.6s1.6-3.6,3.6-3.6,3.6,1.6,3.6,3.6-1.6,3.6-3.6,3.6Z"/>
  </g>
  <g>
    <path class="cls-2" d="M33.8,5.3v114.3h-5.5c-12.6,0-22.9-10.3-22.9-22.9V28.2C5.4,15.6,15.7,5.3,28.3,5.3h5.5Z"/>
    <path class="cls-1" d="M28.3,2.3C14,2.3,2.4,13.9,2.4,28.2v68.5c0,14.3,11.6,25.9,25.9,25.9h8.5c0-.1,31-.1,31-.1V2.3H28.3ZM33.8,119.6h-5.5c-12.6,0-22.9-10.3-22.9-22.9V28.2C5.4,15.6,15.7,5.3,28.3,5.3h5.5v114.3ZM64.8,119.5h-28V24.3h28v95.2ZM64.8,21.3h-28V5.3h28v16Z"/>
  </g>
  <rect class="cls-2" x="36.8" y="24.3" width="28" height="95.2"/>
  <rect class="cls-2" x="36.8" y="5.3" width="28" height="16"/>
  <g>
    <path class="cls-1" d="M175.4,149.8c-.4,0-1.1-.1-1.7-.8-3.2-3.7-.8-22.7,2.3-42.7.1-.8.2-1.5.3-2.1-1.3,1.1-2.6,2.3-3.9,3.5-7,6.2-14.2,12.7-22.4,16-.1,0-.2,0-.4,0-.3,0-.5,0-.7-.3-2.7-2.7-3.1-7.3-3.4-11.4,0-1.2-.2-2.4-.3-3.4-.2-1,.2-2.2,1.1-3.2,1-1.2,2.5-2,3.8-2s1.7.4,2.3,1.1c0,0,0,0,0-.1,2.4-9,1.6-11.2,1.2-11.8-.1-.1-.2-.2-.5-.2-2.9,0-10,7.7-15.2,13.4-.6.7-1.3,1.4-1.9,2-.2.2-.5.3-.7.3s0,0,0,0c-.3,0-.6-.2-.7-.4-1.7-2.3-2.2-4.5-1.7-6.6.6-2.4,2.7-4.5,6.2-6.3,2-1.6,3.5-3.3,5.2-5,1.2-1.3,2.5-2.6,3.9-3.9,6.4-7.2,11.1-10.7,14.3-10.7s2.5.6,3.3,1.8c3.2,4.8,0,19.2-3.7,29.3,5.6-5.2,21.1-24.8,25.3-33.8,0,0,0,0,0-.1.4-.7.8-1.7,1.3-2.7,1.1-2.7,2.4-5.8,5.2-6.5,0,0,.2,0,.2,0s.1,0,.2,0c.8.1,1.4.5,1.8,1.2,2.1,3.5-1.1,13.9-6.5,30.8-2.6,8.2-5.5,17.1-7.1,24.2.2-.7.4-1.5.6-2.2,2.8-10.4,5.6-21.1,12.7-29.1,0-.1.2-.2.4-.3,1.1-.4,2.1-.7,3-.7,4,0,5.8,3.9,7.5,7.7,1,2.1,2,4.3,3.3,5.5,6.9-19.4,17.2-29.6,24-29.6s3.8,1,4.6,2.9c1.8,4.1-.4,12.8-11.9,25.2-.6,1.2-1.2,2.9-.6,3.9.6.9,2.1,1.5,4.2,1.5,3.3,0,7.5-1.4,8.8-2.9,3-3.2,4.6-7.6,6.4-12.3,2.7-7.3,5.5-14.9,13.9-18.1,1-.4,1.9-.5,2.8-.5,3.7,0,6.4,3.4,6.6,8.3,0,0,0,.1,0,.2-1.1,7.5-6,12.8-11.1,18.3-.7.7-1.4,1.5-2.1,2.3-.5,1.4-.4,2.6,0,3.3.7,1,2.2,1.5,4.3,1.5,3.2,0,6.9-1.2,8.6-2.8,2.7-5.1,26.4-22.7,33.4-22.7s2.2.7,2.5,1.3c.6,1.2.8,3.4-3.8,10.3-.1.2-.3.3-.4.4-14.3,6.2-18.3,14.6-17.5,18.5.4,2,2,3.1,4.5,3.1,4.7,0,11.5-3.9,18.5-10.7,0,0,0,0,.1,0,4.8-3.4,6-8.8,7.3-14.4.8-3.4,1.6-6.8,3.2-10.1,12.4-25.4,24-40.6,31.1-40.6s3.2,1,3.9,2.8c3.4,8-5,32.6-29.5,58.1-.2,1.4-.6,2.8-.9,4.1-.8,3.4-1.6,6.6-1,9.1,1.9-1.8,3.6-5.6,5.3-9.3,2.8-6.2,5.8-12.5,10.5-12.5s1.8.2,2.7.7c.2.1.4.3.5.5.7,1.6,1.2,3.3,1.6,4.9,1.2,4.4,2.1,7,5.1,7,1,0,2.1-.3,3.5-.8.1,0,.2,0,.4,0,.3,0,.6.1.8.3,2.4,2.7,2.1,5,1.4,6.5-1.4,3-5.9,5.3-10.6,5.3s-6.6-1.5-8-4c-.4-.6-.7-1.1-.9-1.5-.2-.4-.4-.7-.6-1l-.4.5c-4.7,6.7-11.1,15.9-16,15.9s-5.5-4.2-5.9-12.9c0-.6.2-1.3.3-1.9,0,0,0,0,0,0-1.8,1.3-3.6,2.7-5.3,4-6.2,4.9-12.7,10-21.4,10s-.4,0-.6,0c-4.1-.3-7.9-2.6-10.1-6-1.3-2-1.8-4.2-1.7-6.4-5.8,4.4-10.4,6.6-14.3,6.6s-7.5-3.9-9.3-6.7c-.9-1.5-1.8-2.8-2.5-2.8s0,0,0,0c-6.9,6.4-12.5,9.5-17.1,9.5s-8-4-10-6.9c-.8-1.1-1.7-2.5-2.2-2.5s-.4,0-1,.9c-.1.1-.3.3-.4.3-1.8.7-3.4,1-4.9,1-3.8,0-6.3-2.2-8.9-4.6-.7-.7-1.5-1.4-2.3-2-5,6.9-7.6,15.9-10.1,24.7-1.3,4.7-2.7,9.6-4.5,14.1,0,0,0,0,0,.1-4.1,7.5-6.1,8.5-7.4,8.5ZM229,84.4c-.7.6-2.1,2.1-3.1,3.9-.6,1-.9,1.8-1,2.2.7-.6,1.9-2.1,3.4-4.3.2-.3.4-.6.6-.9,0-.5.1-.8.1-1.1ZM258.6,84.2c-1.2.5-3.5,4.3-4.2,6.3,1.5-1.3,4.2-4.9,4.3-6,0-.1,0-.2,0-.3ZM343.6,50c-1.7.7-7.9,8-16.4,28.3,12.6-15.5,16.8-26.2,16.4-28.3Z"/>
    <path class="cls-4" d="M347.4,37.2c8.6,0,2.9,28.9-26.4,59.3v-.4c-.8,5.4-3.6,11.5-1.5,15.8,5.9-3.3,9.1-22.4,16.3-22.4.7,0,1.5.2,2.3.6,2.4,5.3,2.2,12.6,7.7,12.6s2.3-.3,3.8-.9c4.9,5.5-2.1,10.2-8.4,10.2s-5.8-1-7.2-3.5c-1.6-2.5-1.8-3.3-2.7-3.3-4.4,6.2-11.4,16.8-16.1,16.8s-4.5-3.2-4.9-11.9c0-1.4.9-3.7.2-3.7s-.7.3-1.4.9c-8.2,5.7-15.4,13.9-26.2,13.9s-.4,0-.6,0c-6.8-.5-12.8-7.1-10.2-13.9-7.3,6.1-12.3,8.2-15.8,8.2-7.6,0-8.5-9.5-11.8-9.5s-.3,0-.5,0c-7.6,7.1-12.8,9.4-16.7,9.4-7.6,0-9.5-9.4-12.2-9.4s-1.1.4-1.8,1.3c-1.8.7-3.3,1-4.6,1-4.7,0-7.1-3.7-11.4-7.1-8.3,10.8-10.2,26.8-15.3,39.8-3.1,5.6-5.1,7.9-6.5,7.9-5.8,0,1.7-41.9,2.3-47.1-8.4,7.1-17.6,16.8-28,21-3.2-3.1-2.8-9.8-3.4-14.2-.3-1.8,2-4.1,3.9-4.1.7,0,1.3.3,1.7,1,.3.6.5.9.7.9.3,0,.6-.6.9-1.6,2.6-9.8,2-13.3-.3-13.3-3.7,0-11.8,9.2-17.8,15.7-3.7-5-1.1-8.8,4.2-11.4,3.6-2.9,5.9-6,9.3-9.1,6.6-7.4,10.9-10.4,13.6-10.4,7,0,2.5,20.3-2.3,32.3,0,0,.1,0,.2,0,3.1,0,23.4-25.9,27.9-35.7,1.6-2.5,2.5-8,5.9-8.8,7.9,1.2-15.5,51.3-13.7,65.6,4.7-13,6.3-30,16.2-41.1,1-.4,1.8-.6,2.6-.6,6,0,6.4,11.2,11.3,13.8,7.3-21.3,17.7-30.2,23.5-30.2,6.2,0,6.9,10.4-8.1,26.5-2.7,5.2.4,7,4.4,7s8-1.4,9.6-3.2c7.9-8.5,6.8-25.2,19.9-30.2.9-.3,1.7-.5,2.4-.5,3.6,0,5.4,3.5,5.6,7.4-1.3,8.2-7.1,13.6-13.1,20.2-1.7,4.6,1.4,6.3,5.3,6.3s7.6-1.4,9.4-3.2c2.1-4.6,25.8-22.3,32.6-22.3,2.7,0,2.7,2.7-2.1,10-20.6,9-22.1,23.4-12.6,23.4s11-3,19.2-11c8-5.7,6.6-16.2,10.8-24.9,14-28.9,24.8-40,30.2-40M325.2,80.8h0c-.5,1.3-1.1,1.7-.5,2.2,17.5-20.2,22-34,19.1-34s-9.6,9.3-18.6,31.8M224.2,92c1.6,0,4.6-4.9,5.6-6.1.4-2,.2-2.7-.4-2.7-1.7,0-6.6,7.2-5.5,8.7.1,0,.2,0,.3,0M253.7,92c1.7,0,6.4-6.4,6-7.7-.2-.8-.5-1.1-.9-1.1-2,0-6.3,7.7-5.4,8.7,0,0,.2,0,.3,0M347.4,35.2v2s0-2,0-2c-7.6,0-19.2,15-32,41.1-1.6,3.4-2.4,6.9-3.2,10.3-1.3,5.7-2.5,10.6-6.9,13.8,0,0-.2.1-.2.2-9.7,9.4-15.6,10.5-17.8,10.5s-3.1-.4-3.5-2.3c-.8-3.8,3.9-11.7,16.9-17.3.4-.2.7-.4.9-.7,3.8-5.8,5-9.1,3.8-11.3-.4-.7-1.3-1.8-3.4-1.8-4.7,0-14.1,6.1-19.2,9.8-5.9,4.2-13.2,10-15,13.3-1.6,1.4-4.9,2.4-7.8,2.4s-3-.4-3.5-1.1c-.4-.6-.3-1.5,0-2.2.6-.7,1.3-1.4,1.9-2.1,5.2-5.7,10.2-11,11.4-18.9,0-.1,0-.3,0-.4-.2-5.6-3.3-9.3-7.6-9.3-1,0-2,.2-3.1.6-8.8,3.4-11.8,11.5-14.5,18.7-1.7,4.6-3.3,8.9-6.2,12-1.1,1.2-4.8,2.6-8.1,2.6s-3.1-.5-3.3-1c-.3-.5,0-1.6.6-2.9,9.9-10.8,14.4-20.6,12-26.2-1-2.2-3-3.5-5.5-3.5-6.7,0-17,9-24.3,28.6-.7-1.1-1.4-2.6-2-4-1.8-3.9-3.8-8.2-8.4-8.2-1.1,0-2.2.3-3.4.7-.3.1-.5.3-.7.5-1.3,1.4-2.4,2.9-3.4,4.4,4.9-15.3,7.4-24.3,5.2-27.9-.6-.9-1.5-1.5-2.5-1.7-.1,0-.2,0-.3,0-.2,0-.3,0-.5,0-3.4.8-4.8,4.3-5.9,7.1-.4,1-.8,2-1.2,2.6,0,0,0,.2-.1.2-3.5,7.5-15.3,23-22.1,30.4,2.7-8.6,5.5-21.1,2.2-26-1-1.4-2.4-2.2-4.1-2.2-3.6,0-8.4,3.5-15,11-1.5,1.3-2.7,2.7-3.9,4-1.6,1.7-3.1,3.3-5,4.8-3.7,1.8-5.9,4.2-6.6,6.9-.6,2.4,0,4.9,1.9,7.4.4.5.9.8,1.5.8,0,0,0,0,.1,0,.6,0,1.1-.2,1.5-.6.6-.6,1.2-1.3,1.9-2,4.1-4.4,11.7-12.6,14.3-13,.2.6.6,2.7-1.1,9.4-.5-.3-1.1-.4-1.7-.4-1.6,0-3.3.9-4.5,2.3-1.1,1.3-1.6,2.7-1.3,4.1.1,1,.2,2.1.3,3.3.3,4.3.7,9.1,3.7,12,.4.4.9.6,1.4.6s.5,0,.7-.1c8.4-3.4,15.6-9.9,22.7-16.2.6-.5,1.2-1.1,1.8-1.6-4.2,27.6-4.7,39.7-2,42.9.6.7,1.5,1.2,2.4,1.2,2.4,0,4.8-2.6,8.2-9,0,0,0-.1.1-.2,1.8-4.5,3.2-9.4,4.5-14.1,2.4-8.3,4.8-16.9,9.3-23.5.5.4,1,.9,1.5,1.3,2.8,2.5,5.4,4.9,9.6,4.9s3.4-.4,5.3-1.1c.3-.1.7-.4.9-.7,0-.1.2-.2.2-.3.4.4,1,1.3,1.4,1.9,2,2.9,5,7.3,10.8,7.3s10.5-3.1,17.3-9.3c.4.4,1.1,1.5,1.5,2.2,1.8,2.9,4.5,7.2,10.2,7.2s8.1-1.9,13.3-5.6c.2,1.7.8,3.4,1.8,4.9,2.3,3.6,6.5,6.1,10.8,6.4,0,0,0,0,0,0,.2,0,.4,0,.6,0,9,0,15.6-5.2,22-10.2,1.1-.9,2.3-1.8,3.4-2.6.2,3.6.7,13.7,6.9,13.7s10.3-7,16.3-15.6c.2.3.5.7.7,1.2,1.6,2.8,4.8,4.4,8.9,4.4s9.8-2,11.5-5.9c.6-1.4,1.3-4.3-1.6-7.6-.4-.4-.9-.7-1.5-.7-.2,0-.5,0-.7.1-1.2.5-2.3.7-3.1.7-2.2,0-2.9-1.8-4.2-6.3-.5-1.7-1-3.4-1.7-5.1-.2-.4-.5-.8-.9-1-1.1-.5-2.1-.8-3.2-.8h0c-5.4,0-8.4,6.7-11.4,13.1-1.2,2.5-2.4,5.2-3.7,7.1,0-1.9.6-4.1,1.2-6.4.3-1.3.6-2.6.9-3.9,24.7-25.7,33-50.7,29.5-59-.9-2.2-2.7-3.4-4.8-3.4h0ZM331.4,71.4c4.6-10.1,8.4-16,10.7-18.7-1.2,3.5-4.4,10.1-10.7,18.7h0Z"/>
  </g>
</svg>