<?xml version="1.0" encoding="UTF-8"?>
<svg id="Layer_1" data-name="Layer 1" xmlns="http://www.w3.org/2000/svg" version="1.1" viewBox="0 0 352.1 149.2">
  <defs>
    <style>
      .cls-1 {
        fill: #4271d6;
      }

      .cls-1, .cls-2, .cls-3, .cls-4 {
        stroke-width: 0px;
      }

      .cls-2 {
        fill: #010101;
      }

      .cls-5 {
        stroke: #fff;
        stroke-miterlimit: 10;
      }

      .cls-5, .cls-3 {
        fill: #231f20;
      }

      .cls-4 {
        fill: #6d93e0;
      }
    </style>
  </defs>
  <g>
    <path class="cls-2" d="M93.4,109.6c-1.1-.5-2.2-1.3-3.2-2.4-1-1-1.9-2.2-2.8-3.7-.3-.5-.9-.7-1.5-.4-.5.3-.7.9-.4,1.5.9,1.6,2,3,3.1,4.1,1.2,1.2,2.5,2.2,3.8,2.8.5.3,1.2,0,1.4-.5s0-1.2-.5-1.4ZM111.6,92.6c-2,0-3.6,1.6-3.6,3.6s1.6,3.6,3.6,3.6,3.6-1.6,3.6-3.6-1.6-3.6-3.6-3.6ZM111.6,92.6c-2,0-3.6,1.6-3.6,3.6s1.6,3.6,3.6,3.6,3.6-1.6,3.6-3.6-1.6-3.6-3.6-3.6ZM93.4,109.6c-1.1-.5-2.2-1.3-3.2-2.4-1-1-1.9-2.2-2.8-3.7-.3-.5-.9-.7-1.5-.4-.5.3-.7.9-.4,1.5.9,1.6,2,3,3.1,4.1,1.2,1.2,2.5,2.2,3.8,2.8.5.3,1.2,0,1.4-.5s0-1.2-.5-1.4ZM79.4,84.7c-.7,0-1.2.6-1.2,1.2s.6,1.2,1.2,1.2,1.2-.6,1.2-1.2-.6-1.2-1.2-1.2ZM79.4,84.7c-.7,0-1.2.6-1.2,1.2s.6,1.2,1.2,1.2,1.2-.6,1.2-1.2-.6-1.2-1.2-1.2ZM79.4,84.7c-.7,0-1.2.6-1.2,1.2s.6,1.2,1.2,1.2,1.2-.6,1.2-1.2-.6-1.2-1.2-1.2ZM93.4,109.6c-1.1-.5-2.2-1.3-3.2-2.4-1-1-1.9-2.2-2.8-3.7-.3-.5-.9-.7-1.5-.4-.5.3-.7.9-.4,1.5.9,1.6,2,3,3.1,4.1,1.2,1.2,2.5,2.2,3.8,2.8.5.3,1.2,0,1.4-.5s0-1.2-.5-1.4ZM111.6,92.6c-2,0-3.6,1.6-3.6,3.6s1.6,3.6,3.6,3.6,3.6-1.6,3.6-3.6-1.6-3.6-3.6-3.6ZM111.6,92.6c-2,0-3.6,1.6-3.6,3.6s1.6,3.6,3.6,3.6,3.6-1.6,3.6-3.6-1.6-3.6-3.6-3.6ZM93.4,109.6c-1.1-.5-2.2-1.3-3.2-2.4-1-1-1.9-2.2-2.8-3.7-.3-.5-.9-.7-1.5-.4-.5.3-.7.9-.4,1.5.9,1.6,2,3,3.1,4.1,1.2,1.2,2.5,2.2,3.8,2.8.5.3,1.2,0,1.4-.5s0-1.2-.5-1.4ZM79.4,84.7c-.7,0-1.2.6-1.2,1.2s.6,1.2,1.2,1.2,1.2-.6,1.2-1.2-.6-1.2-1.2-1.2ZM124.4,84.2c0-.1-.1-.3-.2-.4-3.8-5.7-9.7-9.3-16.2-10.7-5.8-1.3-12-.8-17.2,1.7V6.5c0-1.2,0-1.4-1-2.6-.4-.5-.9-.9-1.4-1.2-1.9-1.2-4.9-1.9-7.7-1.9s-5.8.7-7.5,2.1c-.4.3-.8.7-1.1,1.2-.7,1.1-.7,1.3-.7,2.3v72.6h0c0,2.7.2,5.2.4,7.5h0c.2,2.4.6,4.6,1,6.7,1.3,6.3,3.9,12.6,7.9,17.5,3.4,4.3,8,7.7,13.7,9.3,5.4,1.5,11.1,1.3,16.3-.5,5.2-1.8,9.9-5.1,13.5-9.7.8-1.1,1.2-7,1.2-12.9,0-5.4-.3-10.9-1-12.7ZM74.6,5.7c.1-.2.3-.3.5-.5,1.2-1,3.3-1.4,5.6-1.4s4.7.5,6.1,1.4c.3.2.6.4.8.6.3.3.3.4.3.6v.6s0,.3,0,.3h-13.3v-.6c0-.2,0,0,0-.4s0-.3.2-.6ZM109.7,116.7h0c-4.7,1.6-9.7,1.8-14.5.5-5.1-1.4-9.1-4.4-12.2-8.3-3.7-4.6-6-10.4-7.3-16.3-.4-2-.8-4.1-1-6.4h0c-.2-2.3-.3-4.7-.4-7.3h0V10h13.3v67.2c0,.8.7,1.5,1.5,1.5s.6,0,.8-.3c5-3,11.4-3.7,17.3-2.4,5.5,1.2,10.6,4.2,13.9,8.8-.3.2-.6.6-.6,1v21.3c0,.5.4,1,.9,1.1-3.2,3.9-7.3,6.8-11.8,8.3h0ZM111.6,92.6c-2,0-3.6,1.6-3.6,3.6s1.6,3.6,3.6,3.6,3.6-1.6,3.6-3.6-1.6-3.6-3.6-3.6ZM93.4,109.6c-1.1-.5-2.2-1.3-3.2-2.4-1-1-1.9-2.2-2.8-3.7-.3-.5-.9-.7-1.5-.4-.5.3-.7.9-.4,1.5.9,1.6,2,3,3.1,4.1,1.2,1.2,2.5,2.2,3.8,2.8.5.3,1.2,0,1.4-.5s0-1.2-.5-1.4ZM79.4,84.7c-.7,0-1.2.6-1.2,1.2s.6,1.2,1.2,1.2,1.2-.6,1.2-1.2-.6-1.2-1.2-1.2ZM79.4,84.7c-.7,0-1.2.6-1.2,1.2s.6,1.2,1.2,1.2,1.2-.6,1.2-1.2-.6-1.2-1.2-1.2ZM93.4,109.6c-1.1-.5-2.2-1.3-3.2-2.4-1-1-1.9-2.2-2.8-3.7-.3-.5-.9-.7-1.5-.4-.5.3-.7.9-.4,1.5.9,1.6,2,3,3.1,4.1,1.2,1.2,2.5,2.2,3.8,2.8.5.3,1.2,0,1.4-.5s0-1.2-.5-1.4ZM111.6,92.6c-2,0-3.6,1.6-3.6,3.6s1.6,3.6,3.6,3.6,3.6-1.6,3.6-3.6-1.6-3.6-3.6-3.6ZM111.6,92.6c-2,0-3.6,1.6-3.6,3.6s1.6,3.6,3.6,3.6,3.6-1.6,3.6-3.6-1.6-3.6-3.6-3.6ZM93.4,109.6c-1.1-.5-2.2-1.3-3.2-2.4-1-1-1.9-2.2-2.8-3.7-.3-.5-.9-.7-1.5-.4-.5.3-.7.9-.4,1.5.9,1.6,2,3,3.1,4.1,1.2,1.2,2.5,2.2,3.8,2.8.5.3,1.2,0,1.4-.5s0-1.2-.5-1.4ZM79.4,84.7c-.7,0-1.2.6-1.2,1.2s.6,1.2,1.2,1.2,1.2-.6,1.2-1.2-.6-1.2-1.2-1.2Z"/>
    <path class="cls-1" d="M87.8,6.4v.6s0,.3,0,.3h-13.3v-.6c0-.2,0,0,0-.4s0-.3.2-.6c.1-.2.3-.3.5-.5,1.2-1,3.3-1.4,5.6-1.4s4.7.5,6.1,1.4c.3.2.6.4.8.6.3.3.3.4.3.6Z"/>
    <path class="cls-4" d="M120.7,107.3v-21.3c0-.4.2-.8.6-1-3.3-4.7-8.4-7.7-13.9-8.8-5.9-1.3-12.2-.5-17.3,2.4-.2.2-.5.3-.8.3-.8,0-1.5-.7-1.5-1.5V10h-13.3v68.9h0c0,2.6.2,5,.4,7.2h0c.2,2.3.5,4.4,1,6.4,1.2,5.9,3.6,11.7,7.3,16.3,3.1,3.9,7.1,6.9,12.2,8.3,4.8,1.3,9.8,1.1,14.5-.5h0c4.5-1.6,8.7-4.4,11.8-8.3-.5-.1-.9-.6-.9-1.1ZM79.4,87.2c-.7,0-1.2-.6-1.2-1.2s.6-1.2,1.2-1.2,1.2.6,1.2,1.2-.6,1.2-1.2,1.2ZM93.9,111c-.3.5-.9.8-1.4.5-1.3-.6-2.6-1.6-3.8-2.8-1.1-1.1-2.2-2.5-3.1-4.1-.3-.5-.1-1.2.4-1.5.5-.3,1.2-.1,1.5.4.8,1.4,1.8,2.7,2.8,3.7,1.1,1.1,2.2,1.9,3.2,2.4.5.3.8.9.5,1.4ZM111.6,99.8c-2,0-3.6-1.6-3.6-3.6s1.6-3.6,3.6-3.6,3.6,1.6,3.6,3.6-1.6,3.6-3.6,3.6Z"/>
  </g>
  <g>
    <path class="cls-1" d="M27.3,119.6c-13.5,0-24.4-10.9-24.4-24.4V26.7c0-13.5,10.9-24.4,24.4-24.4h7v117.3h-7Z"/>
    <path class="cls-3" d="M32.8,3.8v114.3h-5.5c-12.6,0-22.9-10.3-22.9-22.9V26.7c0-12.6,10.3-22.9,22.9-22.9h5.5M35.8.8h-8.5C13,.8,1.4,12.4,1.4,26.7v68.5c0,14.3,11.6,25.9,25.9,25.9h8.5V.8h0Z"/>
  </g>
  <g>
    <rect class="cls-1" x="34.2" y="21.3" width="31" height="98.2"/>
    <path class="cls-3" d="M63.8,22.8v95.2h-28V22.8h28M66.8,19.8h-34v101.2h34V19.8h0Z"/>
  </g>
  <g>
    <rect class="cls-1" x="34.2" y="2.3" width="31" height="19"/>
    <path class="cls-3" d="M63.8,3.8v16h-28V3.8h28M66.8.8h-34v22h34V.8h0Z"/>
  </g>
  <path class="cls-5" d="M320,96c12.8-15.7,25.1-30.9,30.7-49.9,1-3.1,1.4-9.1-3.1-8.2-.2-.4-.6-.8-1.2-1.3-14.2,6.8-24.7,25.5-30.1,40.1-4.2,8.7-2.8,19.2-10.8,24.9,0,0,0,0,0,0-5.5,5.4-11.9,10-19.4,11.6-6.1-.5-7-6.5-4.6-11.1,5.2-4.9,11.1-10,17.2-12.8,3.7-1.7,4.2-5.1,3.9-8.7-1.9-7.8-31.4,16.7-33.6,20.4l-.5.5s0,0,0,0c-4,3.7-16.9,5.9-15-2.8,6.1-6.7,11.9-12.1,13.4-20.3-.2-4.7-2.5-8.8-7.7-7.3-9.4,4-14.6,15.6-15.6,25.2-2,1.6-3.5,3.1-4.6,5.1,0,0,0,0,0,0-4.1,3.7-16.8,6-15-2.8,6.1-6.7,11.9-12.1,13.5-20.3-.2-4.7-2.6-8.8-7.7-7.3-9.4,4-14.6,15.6-15.6,25.2-2,1.6-3.5,3.1-4.6,5.1-5.5-2.9-5.3-16.8-13.9-13.2-6.4,5.7-8.4,17-11.2,24.1-2.9,6.4-2.5,11.3-5,17,.9-10.9,4.8-25.9,7.9-35.8,1.8-8.3,12.3-28.1,5.8-29.8-3.4.8-4.3,6.3-5.9,8.8-4.6,10-11.2,20.8-18.6,28.9,0,0,0,0,0,0-2.1.9-7.3,8.1-9.5,6.7,2.3-9.4,9-22.6,5.1-31-6.7-4.9-11.9,5.8-16.4,9.1-3.4,3.1-5.7,6.2-9.3,9.1-2.1,1.4-5.7,3.5-6.6,6,1,2.1,1.8,3.6,2.4,5.4,3.7-5.4,10.6-10.3,13.3-12.9,10.1-10.1,5.5,5.5,4.8,10.5-.5,1.7-.9,2.2-1.6.7-1.6-2.6-6,.6-5.6,3.1.6,3.6,0,8.7,2.2,11.9,0,1.1.1,2,1.2,2.3,2.6-.9,5.1-1.3,6.7-3.9,2.7-.8,4.9-3.7,6.9-5.2,5.7-2.7,9.9-8.5,14.4-11.9-.8,13.2-5.3,27.4-4.8,40.4,0,11.2,7.4,6.1,9-1.2,5.1-13,7-29,15.3-39.8,1.7.3,5.1,5.6,6.9,5.8,3.8,1.9,5.7,1.3,9.1.3h0c5.7-7.3,2.9,13.2,18.3,6.6,4.7-.2,8.7-4.4,12.4-7.9,4.6-2.6,2.5,13.8,17.1,7.9,4.3-.2,7.5-3.3,11.1-6.6-2.6,6.8,3.4,13.4,10.2,13.9,11.1.3,18.5-8.1,26.8-13.9,0,0,0,0,0,0,.5-.3.9-.7,1.2-1.1,1.5.4-.3,2.7,0,3.9.6,3.2-.2,8.9,3,11.3,9.1,2.8,12.5-11.3,18-16.1.9,0,1.1.8,2.7,3.3,4.3,6.8,13.2,2.4,18-1.3-.8-1.8-1.6-3.7-2.4-5.4-9.5,3.7-8.7-5.4-11.5-11.7-1.3-2.1-3.6,0-5.3.5-5.5,5.1-7.3,16.6-13.3,21.3-2.1-4.3.7-10.4,1.5-15.8h0ZM324.2,80.3c2.8-10.6,10.1-22.2,16.9-30.6,8.9-9.2-3.5,13.7-4.4,15.3-3.9,6.9-8.1,12.1-13,17.5l-.3-.3c0-.2.3-.9.8-2ZM222.9,91.4c-1.5-2.1,7.6-14,5.9-6-1,1.3-4.4,6.8-5.9,6ZM252.4,91.4c-1.1-1.2,5.3-12.2,6.3-7.6.4,1.4-5,8.6-6.3,7.6h0Z"/>
</svg>