<?xml version="1.0" encoding="UTF-8"?>
<svg id="Layer_1" data-name="Layer 1" xmlns="http://www.w3.org/2000/svg" version="1.1" viewBox="0 0 358.7 144.8">
  <defs>
    <style>
      .cls-1 {
        fill: #000;
      }

      .cls-1, .cls-2, .cls-3, .cls-4, .cls-5 {
        stroke-width: 0px;
      }

      .cls-2 {
        fill: #4271d6;
      }

      .cls-6, .cls-7, .cls-8, .cls-9, .cls-10 {
        fill: none;
        stroke: #fff;
        stroke-miterlimit: 10;
      }

      .cls-7 {
        stroke-width: .8px;
      }

      .cls-3 {
        fill: #010101;
      }

      .cls-8 {
        stroke-width: .5px;
      }

      .cls-4 {
        fill: #fff;
      }

      .cls-9 {
        stroke-width: .2px;
      }

      .cls-10 {
        stroke-width: 1.5px;
      }

      .cls-5 {
        fill: #6d93e0;
      }
    </style>
  </defs>
  <g>
    <path class="cls-5" d="M120.2,108.6v-21.3c0-.4,1.5-.7,1.8-.9-3.3-4.6-8.4-7.6-13.9-8.8-5.9-1.3-12.3-.6-17.3,2.4-.2.3,0,.3-.8.3s-1.5-.7-1.5-1.5V11.6h-13.3v68.8c0,2.6.2,5,.4,7.3.2,2.3.6,4.4,1,6.4,1.3,5.9,3.6,11.7,7.3,16.3,3.1,3.9,7.1,6.9,12.2,8.3,4.8,1.3,9.7.9,14.4-.7,2.3-.7,4.4-1.8,6.4-3.2h0c2-1.3,3.8-3,5.4-5-.5,0-2.1-.6-2.1-1.2h0ZM80.3,88.6c-.6,0-1.2-.6-1.2-1.2s.5-1.2,1.2-1.2,1.2.6,1.2,1.2-.6,1.2-1.2,1.2ZM94.6,112.6c-.2.5-.9.8-1.4.5-1.3-.6-2.7-1.7-3.8-2.8s-2.2-2.5-3.1-4.1c-.3-.6,0-1.2.4-1.5.6-.3,1.2,0,1.5.4.9,1.5,1.8,2.7,2.8,3.7,1,1.1,2.1,1.9,3.2,2.4h0c.5.2.7.9.5,1.4ZM112.5,101.4c-2,0-3.6-1.6-3.6-3.6s1.6-3.6,3.6-3.6,3.6,1.6,3.6,3.6-1.6,3.6-3.6,3.6Z"/>
    <path class="cls-2" d="M88.8,7.9v.9h-13.3v-1.6c0-.2.3-.3.5-.5,1.1-.9,2.9-1.3,4.9-1.4h1.6c2,0,4,.6,5.2,1.4.3.2.6.4.8.6.3.3.3.4.3.6Z"/>
    <path class="cls-3" d="M80.3,86.2c-.7,0-1.2.6-1.2,1.2s.6,1.2,1.2,1.2,1.2-.6,1.2-1.2-.6-1.2-1.2-1.2ZM94.1,111.1h0c-1.1-.5-2.2-1.3-3.2-2.4-1-1-1.9-2.2-2.8-3.7s-.9-.7-1.5-.4c-.5.3-.7.9-.4,1.5.9,1.6,2,3,3.1,4.1s2.5,2.2,3.8,2.8c.5.3,1.2,0,1.4-.5.2-.5,0-1.2-.5-1.4ZM112.5,94.1c-2,0-3.6,1.6-3.6,3.6s1.6,3.6,3.6,3.6,3.6-1.6,3.6-3.6-1.6-3.6-3.6-3.6ZM112.5,94.1c-2,0-3.6,1.6-3.6,3.6s1.6,3.6,3.6,3.6,3.6-1.6,3.6-3.6-1.6-3.6-3.6-3.6ZM94.1,111.1h0c-1.1-.5-2.2-1.3-3.2-2.4-1-1-1.9-2.2-2.8-3.7s-.9-.7-1.5-.4c-.5.3-.7.9-.4,1.5.9,1.6,2,3,3.1,4.1s2.5,2.2,3.8,2.8c.5.3,1.2,0,1.4-.5.2-.5,0-1.2-.5-1.4ZM80.3,86.2c-.7,0-1.2.6-1.2,1.2s.6,1.2,1.2,1.2,1.2-.6,1.2-1.2-.6-1.2-1.2-1.2ZM80.3,86.2c-.7,0-1.2.6-1.2,1.2s.6,1.2,1.2,1.2,1.2-.6,1.2-1.2-.6-1.2-1.2-1.2ZM94.1,111.1h0c-1.1-.5-2.2-1.3-3.2-2.4-1-1-1.9-2.2-2.8-3.7s-.9-.7-1.5-.4c-.5.3-.7.9-.4,1.5.9,1.6,2,3,3.1,4.1s2.5,2.2,3.8,2.8c.5.3,1.2,0,1.4-.5.2-.5,0-1.2-.5-1.4ZM112.5,94.1c-2,0-3.6,1.6-3.6,3.6s1.6,3.6,3.6,3.6,3.6-1.6,3.6-3.6-1.6-3.6-3.6-3.6ZM112.5,94.1c-2,0-3.6,1.6-3.6,3.6s1.6,3.6,3.6,3.6,3.6-1.6,3.6-3.6-1.6-3.6-3.6-3.6ZM94.1,111.1h0c-1.1-.5-2.2-1.3-3.2-2.4-1-1-1.9-2.2-2.8-3.7s-.9-.7-1.5-.4c-.5.3-.7.9-.4,1.5.9,1.6,2,3,3.1,4.1s2.5,2.2,3.8,2.8c.5.3,1.2,0,1.4-.5.2-.5,0-1.2-.5-1.4ZM80.3,86.2c-.7,0-1.2.6-1.2,1.2s.6,1.2,1.2,1.2,1.2-.6,1.2-1.2-.6-1.2-1.2-1.2ZM80.3,86.2c-.7,0-1.2.6-1.2,1.2s.6,1.2,1.2,1.2,1.2-.6,1.2-1.2-.6-1.2-1.2-1.2ZM94.1,111.1h0c-1.1-.5-2.2-1.3-3.2-2.4-1-1-1.9-2.2-2.8-3.7s-.9-.7-1.5-.4c-.5.3-.7.9-.4,1.5.9,1.6,2,3,3.1,4.1s2.5,2.2,3.8,2.8c.5.3,1.2,0,1.4-.5.2-.5,0-1.2-.5-1.4ZM112.5,94.1c-2,0-3.6,1.6-3.6,3.6s1.6,3.6,3.6,3.6,3.6-1.6,3.6-3.6-1.6-3.6-3.6-3.6ZM112.5,94.1c-2,0-3.6,1.6-3.6,3.6s1.6,3.6,3.6,3.6,3.6-1.6,3.6-3.6-1.6-3.6-3.6-3.6ZM94.1,111.1h0c-1.1-.5-2.2-1.3-3.2-2.4-1-1-1.9-2.2-2.8-3.7s-.9-.7-1.5-.4c-.5.3-.7.9-.4,1.5.9,1.6,2,3,3.1,4.1s2.5,2.2,3.8,2.8c.5.3,1.2,0,1.4-.5.2-.5,0-1.2-.5-1.4ZM80.3,86.2c-.7,0-1.2.6-1.2,1.2s.6,1.2,1.2,1.2,1.2-.6,1.2-1.2-.6-1.2-1.2-1.2ZM125.3,85.7s0-.2-.2-.4c-3.8-5.7-9.7-9.3-16.2-10.7-5.8-1.3-12-.8-17.2,1.7V8.1c0-1.2,0-1.4-1-2.6-.4-.5-.9-.9-1.4-1.2-1.9-1.2-4.9-1.9-7.7-1.9s-5.8.7-7.5,2.1c-.4.3-.8.7-1.1,1.2-.7,1.1-.7,1.3-.7,2.3v72.6c0,2.7.2,5.2.4,7.5.2,2.4.6,4.6,1,6.7,1.3,6.3,3.9,12.6,7.9,17.5,3.4,4.3,8,7.7,13.7,9.3,5.4,1.5,11.1,1.3,16.3-.5,5.2-1.8,9.9-5.1,13.5-9.7.8-1.1,1.2-7,1.2-12.9s-.3-10.9-1-12.7h0ZM75.5,7.2c0-.2.3-.3.5-.5,1.1-.9,2.9-1.3,4.9-1.4h1.6c2,0,4,.6,5.2,1.4.3.2.6.4.8.6.3.3.3.4.3.6v.9h-13.3s0-1.6,0-1.6ZM116.9,114.9h0c-2,1.3-4.1,2.4-6.4,3.1-4.7,1.6-9.6,2-14.4.7-5.1-1.4-9.1-4.4-12.2-8.3-3.7-4.6-6-10.4-7.3-16.3-.4-2-.8-4.1-1-6.4s-.3-4.7-.4-7.3V11.6h13.3v67.2c0,.8.7,1.5,1.5,1.5s.6,0,.8-.3c5-3,11.4-3.7,17.3-2.4,5.5,1.2,10.6,4.2,13.9,8.8-.3.2-1.7.5-1.8.9v21.3c0,.5,1.6,1.1,2.1,1.2-1.6,2-3.4,3.7-5.4,5.1h0ZM112.5,94.1c-2,0-3.6,1.6-3.6,3.6s1.6,3.6,3.6,3.6,3.6-1.6,3.6-3.6-1.6-3.6-3.6-3.6ZM94.1,111.1h0c-1.1-.5-2.2-1.3-3.2-2.4-1-1-1.9-2.2-2.8-3.7s-.9-.7-1.5-.4c-.5.3-.7.9-.4,1.5.9,1.6,2,3,3.1,4.1s2.5,2.2,3.8,2.8c.5.3,1.2,0,1.4-.5.2-.5,0-1.2-.5-1.4ZM80.3,86.2c-.7,0-1.2.6-1.2,1.2s.6,1.2,1.2,1.2,1.2-.6,1.2-1.2-.6-1.2-1.2-1.2ZM80.3,86.2c-.7,0-1.2.6-1.2,1.2s.6,1.2,1.2,1.2,1.2-.6,1.2-1.2-.6-1.2-1.2-1.2ZM94.1,111.1h0c-1.1-.5-2.2-1.3-3.2-2.4-1-1-1.9-2.2-2.8-3.7s-.9-.7-1.5-.4c-.5.3-.7.9-.4,1.5.9,1.6,2,3,3.1,4.1s2.5,2.2,3.8,2.8c.5.3,1.2,0,1.4-.5.2-.5,0-1.2-.5-1.4ZM112.5,94.1c-2,0-3.6,1.6-3.6,3.6s1.6,3.6,3.6,3.6,3.6-1.6,3.6-3.6-1.6-3.6-3.6-3.6ZM112.5,94.1c-2,0-3.6,1.6-3.6,3.6s1.6,3.6,3.6,3.6,3.6-1.6,3.6-3.6-1.6-3.6-3.6-3.6ZM94.1,111.1h0c-1.1-.5-2.2-1.3-3.2-2.4-1-1-1.9-2.2-2.8-3.7s-.9-.7-1.5-.4c-.5.3-.7.9-.4,1.5.9,1.6,2,3,3.1,4.1s2.5,2.2,3.8,2.8c.5.3,1.2,0,1.4-.5.2-.5,0-1.2-.5-1.4ZM80.3,86.2c-.7,0-1.2.6-1.2,1.2s.6,1.2,1.2,1.2,1.2-.6,1.2-1.2-.6-1.2-1.2-1.2ZM80.3,86.2c-.7,0-1.2.6-1.2,1.2s.6,1.2,1.2,1.2,1.2-.6,1.2-1.2-.6-1.2-1.2-1.2ZM94.1,111.1h0c-1.1-.5-2.2-1.3-3.2-2.4-1-1-1.9-2.2-2.8-3.7s-.9-.7-1.5-.4c-.5.3-.7.9-.4,1.5.9,1.6,2,3,3.1,4.1s2.5,2.2,3.8,2.8c.5.3,1.2,0,1.4-.5.2-.5,0-1.2-.5-1.4ZM112.5,94.1c-2,0-3.6,1.6-3.6,3.6s1.6,3.6,3.6,3.6,3.6-1.6,3.6-3.6-1.6-3.6-3.6-3.6ZM112.5,94.1c-2,0-3.6,1.6-3.6,3.6s1.6,3.6,3.6,3.6,3.6-1.6,3.6-3.6-1.6-3.6-3.6-3.6ZM94.1,111.1h0c-1.1-.5-2.2-1.3-3.2-2.4-1-1-1.9-2.2-2.8-3.7s-.9-.7-1.5-.4c-.5.3-.7.9-.4,1.5.9,1.6,2,3,3.1,4.1s2.5,2.2,3.8,2.8c.5.3,1.2,0,1.4-.5.2-.5,0-1.2-.5-1.4ZM80.3,86.2c-.7,0-1.2.6-1.2,1.2s.6,1.2,1.2,1.2,1.2-.6,1.2-1.2-.6-1.2-1.2-1.2ZM80.3,86.2c-.7,0-1.2.6-1.2,1.2s.6,1.2,1.2,1.2,1.2-.6,1.2-1.2-.6-1.2-1.2-1.2ZM80.3,86.2c-.7,0-1.2.6-1.2,1.2s.6,1.2,1.2,1.2,1.2-.6,1.2-1.2-.6-1.2-1.2-1.2ZM94.1,111.1h0c-1.1-.5-2.2-1.3-3.2-2.4-1-1-1.9-2.2-2.8-3.7s-.9-.7-1.5-.4c-.5.3-.7.9-.4,1.5.9,1.6,2,3,3.1,4.1s2.5,2.2,3.8,2.8c.5.3,1.2,0,1.4-.5.2-.5,0-1.2-.5-1.4ZM112.5,94.1c-2,0-3.6,1.6-3.6,3.6s1.6,3.6,3.6,3.6,3.6-1.6,3.6-3.6-1.6-3.6-3.6-3.6ZM112.5,94.1c-2,0-3.6,1.6-3.6,3.6s1.6,3.6,3.6,3.6,3.6-1.6,3.6-3.6-1.6-3.6-3.6-3.6ZM94.1,111.1h0c-1.1-.5-2.2-1.3-3.2-2.4-1-1-1.9-2.2-2.8-3.7s-.9-.7-1.5-.4c-.5.3-.7.9-.4,1.5.9,1.6,2,3,3.1,4.1s2.5,2.2,3.8,2.8c.5.3,1.2,0,1.4-.5.2-.5,0-1.2-.5-1.4Z"/>
  </g>
  <g>
    <path class="cls-5" d="M120.2,108.6v-21.3c0-.4,1.5-.7,1.8-.9-3.3-4.6-8.4-7.6-13.9-8.8-5.9-1.3-12.3-.6-17.3,2.4-.2.3,0,.3-.8.3s-1.5-.7-1.5-1.5V11.6h-13.3v68.8c0,2.6.2,5,.4,7.3.2,2.3.6,4.4,1,6.4,1.3,5.9,3.6,11.7,7.3,16.3,3.1,3.9,7.1,6.9,12.2,8.3,4.8,1.3,9.7.9,14.4-.7,2.3-.7,4.4-1.8,6.4-3.2h0c2-1.3,3.8-3,5.4-5-.5,0-2.1-.6-2.1-1.2h0ZM80.3,88.6c-.6,0-1.2-.6-1.2-1.2s.5-1.2,1.2-1.2,1.2.6,1.2,1.2-.6,1.2-1.2,1.2ZM94.6,112.6c-.2.5-.9.8-1.4.5-1.3-.6-2.7-1.7-3.8-2.8s-2.2-2.5-3.1-4.1c-.3-.6,0-1.2.4-1.5.6-.3,1.2,0,1.5.4.9,1.5,1.8,2.7,2.8,3.7,1,1.1,2.1,1.9,3.2,2.4h0c.5.2.7.9.5,1.4ZM112.5,101.4c-2,0-3.6-1.6-3.6-3.6s1.6-3.6,3.6-3.6,3.6,1.6,3.6,3.6-1.6,3.6-3.6,3.6Z"/>
    <path class="cls-2" d="M88.8,7.9v.9h-13.3v-1.6c0-.2.3-.3.5-.5,1.1-.9,2.9-1.3,4.9-1.4h1.6c2,0,4,.6,5.2,1.4.3.2.6.4.8.6.3.3.3.4.3.6Z"/>
  </g>
  <g>
    <path class="cls-2" d="M33.8,5.3v114.3h-5.5c-12.6,0-22.9-10.3-22.9-22.9V28.2C5.4,15.6,15.7,5.3,28.3,5.3c0,0,5.5,0,5.5,0Z"/>
    <path class="cls-1" d="M28.3,2.3C14,2.3,2.4,13.9,2.4,28.2v68.5c0,14.3,11.6,25.9,25.9,25.9h39.5V2.3H28.3ZM33.8,119.6h-5.5c-12.6,0-22.9-10.3-22.9-22.9V28.2C5.4,15.6,15.7,5.3,28.3,5.3h5.5s0,114.3,0,114.3ZM64.8,119.5h-28V24.3h28v95.2ZM64.8,21.3h-28V5.3h28v16Z"/>
  </g>
  <rect class="cls-2" x="36.8" y="24.3" width="28" height="95.2"/>
  <rect class="cls-2" x="36.8" y="5.3" width="28" height="16"/>
  <g>
    <path class="cls-1" d="M332.5,78.3h0q0,0,0,0Z"/>
    <path class="cls-1" d="M322.8,89.3h0c3.1-3.1,5.9-6.3,8.4-9.5-2.6,3.1-5.3,6.3-8.4,9.4h0Z"/>
    <path class="cls-1" d="M175.9,142.8h0c.4,0,.9,0,1.4-.4-.5.2-1,.4-1.4.4Z"/>
    <path class="cls-1" d="M352.1,29.9v-.2.2Z"/>
    <path class="cls-1" d="M305.6,72"/>
  </g>
  <g>
    <g>
      <path class="cls-1" d="M180.9,143.9c-.5,0-1.1-.1-1.7-.8-3.1-3.6-.8-22.3,2.2-42l.2-1.3c0,0,0-.2,0-.4-.1-.2-.3-.2-.4-.2s-.1,0-.2,0c0,0,0,0-.1.1-1.1,1-2.2,1.9-3.2,2.9-6.5,5.8-13.3,11.8-20.9,15.2h-.2c0,0-.2,0-.2,0-.2,0-.4.1-.6.1-.8,0-1.5-.3-2-1-1.9-2.8-2.2-7-2.5-10.7,0-1.1-.2-2.1-.3-3.1-.2-1,.2-2.2,1.1-3.2,1-1.2,2.5-2,3.8-2s2,0,2.4.9c2.3-8.5,1.7-11,1.2-11.7-.1-.1-.2-.2-.5-.2-1.8,0-5.4,3.6-8.9,7-1.8,1.8-3.8,3.7-5.8,5.5-1.2,1.2-10.4,7.1-13.3,8.6l-1.6.8v-1.7c.3-2.2.4-4.9.4-7.6,0-3.9-.1-7.2-.4-9.5l-.2-1.4,1.4.3c2.3.5,5.8,1.2,9,1.2s.7,0,1,0c1.9,0,3.4-.5,4.7-1.1h0s0,0,0,0c1.7-1.5,3.1-2.9,4.5-4.5,1.2-1.3,2.4-2.6,3.8-3.9,6.5-7.3,11-10.7,14.3-10.7s2.5.6,3.3,1.8c3.2,4.8,0,19.2-3.7,29.3,5.7-5.2,21.4-25.5,25.3-33.9h0c0,0,0-.1,0-.1.5-.7.9-1.7,1.3-2.8.9-2.3,2-5,4.2-6.1s.6-.3,1.1-.3c.9,0,1.7.5,2.2,1.3,1.9,3.6-1.2,14-6.6,30.7-2.7,8.3-5.6,17.3-7.1,24.4.2-.9.5-1.7.7-2.6,2.7-10.2,5.5-20.8,12.4-28.7.3-.3.6-.6,1.1-.7.7-.3,1.6-.5,2.4-.5,4,0,5.8,3.9,7.5,7.6.8,1.8,1.7,3.7,2.8,4.9,0,0,.1.1.3.1s.4-.1.6-.4c7.2-19.7,17.3-28.7,23.7-28.7s3.5,1,4.3,2.9c1.8,4.2-.2,12.9-11.4,25,0,.1-.2.2-.3.3-.6,1.2-1.2,2.8-.5,3.9.6.9,2.1,1.5,4.1,1.5,3.9,0,7.6-1.5,8.9-2.9,3-3.2,4.6-7.6,6.4-12.3,2.7-7.4,5.6-15,13.9-18.1,1.2-.4,2-.6,2.8-.6,3.7,0,6.3,3.3,6.6,8.3h0c0,0,0,.4,0,.4h0c-1.2,7.3-5.9,12.5-10.9,18-.7.8-1.4,1.5-2.1,2.3,0,0,0,.1-.1.2v.2c-.5,1.4-.4,2.5,0,3.3.7.9,2.2,1.4,4.3,1.4,3.7,0,7.1-1.4,8.6-2.8,2.7-5.2,26.1-22.7,33.4-22.7,1.1,0,2.2.5,2.8,1.4.7.9.9,2,.5,3,0,.3-.2.7-.4,1h0c0,.1,0,.2,0,.2-.3.4-.6.8-.9,1.2-.9,1.2-2,2.6-3,4.2h0c0,0,0,.2,0,.2-.2.2-.5.5-.9.7h0s0,0,0,0c-12.4,5.5-18.1,13.5-17.1,18.2.4,2,2,3.1,4.5,3.1h0c7.8,0,9.7-2,15.5-7.8.8-.9,1.8-1.8,2.8-2.8h.1c0-.1.3-.2.3-.2,4.6-3.4,5.9-8.7,7.1-14.3.8-3.4,1.6-6.9,3.2-10.1,14-28.9,23.2-37.1,27.4-39.4.5-.2,1-.4,1.5-.6l-.8-.8h2.5c1.7.2,3.1,1.2,3.8,3,3.3,8.1-5.2,32.7-29.5,58-.2,1.3-.6,2.6-.9,3.9-.7,2.9-1.4,5.8-1.2,8.2h0c0,.3.3.4.5.4s.3,0,.3,0c0,0,0,0,.1-.2,1.7-2,3.2-5.4,4.7-8.6,2.3-4.9,4.6-10,7.8-11.7,1-.4,1.8-.6,2.7-.6s1.1.1,1.7.4c.7.2,1.3.8,1.5,1.5.6,1.4,1,2.9,1.4,4.3,1.2,4.3,2.1,7,5,7h.2c.8,0,1.5-.2,2.4-.4h.3c0,0,2.8,1,2.8,1l.2.3c1.1,1.9,1.1,3.8.1,5.6-1.6,2.8-5.9,4.8-10.3,4.8s-6.4-.9-7.7-3.3c-.1-.2-.2-.4-.3-.6-.4-.5-.6-1-.9-1.4,0-.2-.2-.3-.2-.4,0,0-.1-.2-.4-.2s-.3,0-.4.2c-5.8,8.3-11.4,15.8-15.9,15.8s-5.5-4.3-5.9-12.9c0-.6.1-1.3.2-1.9-1.8,1.3-3.6,2.7-5.4,4.1-6.2,4.9-12.6,9.9-21.1,9.9h-.6c-6.3-.4-11.6-5.5-11.8-11.3,0-.4-.4-.4-.5-.4s-.1,0-.2,0h-.1c-5.2,4-9.7,6-13.3,6-5.1,0-7.5-3.9-9.3-6.7-.9-1.5-1.8-2.8-2.5-2.8h-.1c-6.8,6.3-12.4,9.4-17.1,9.4s-8-4.2-9.9-6.9c-.7-1-1.7-2.5-2.1-2.5h0c-.4,0-.7.2-.8.2-.2.3-.5.5-1,.9h0s0,0,0,0c-1.9.7-3.1,1.2-4.6,1.2-3.8,0-6.3-2.3-9-4.7-.6-.5-1.1-1-1.8-1.6-.1-.1-.2-.2-.3-.2s-.4,0-.4.2c-4.7,6.8-7.2,15.6-9.7,24.1-1.3,4.7-2.7,9.5-4.5,13.9v.5c-4.2,7.3-6.1,8.3-7.4,8.3ZM263.6,78.3c-1.1.5-3.4,4.1-4.1,6.1,1.5-1.3,4.1-4.8,4.2-5.9,0-.1,0-.2,0-.3ZM234,78.6c-.7.6-2,2-3,3.8-.5.8-.8,1.5-1,2,1-.9,2.3-2.7,2.9-3.6.3-.4.6-.8.9-1.1l.2-.4c0-.3,0-.5,0-.7ZM348.6,44c-1.7.4-7.2,6.1-16.4,28.4,12.8-15.7,16.9-26.4,16.4-28.4Z"/>
      <path class="cls-4" d="M352.5,31.2c8.4.3,2.6,29.1-26.5,59.3v-.4c-.7,4.4-2.6,9.3-2.2,13.2,0,.8.8,1.3,1.5,1.3s.9-.2,1.2-.6c4.2-5.1,7.2-17.3,12.2-20,.7-.3,1.4-.5,2.2-.5s.9,0,1.4.3c.4,0,.8.5.9.9,2.1,5.2,2.2,12,7.3,12h.2c1,0,1.7-.2,2.7-.5.7.3,1.4.6,2.1.9,2.9,5-3.5,8.9-9.3,8.9s-5.8-1-7.2-3.5c-.5-.7-.8-1.3-1.1-1.8-.3-.5-.8-.7-1.3-.7s-.9.2-1.2.6c-4.4,6.3-10.8,15.4-15.1,15.4s-4.5-3.2-4.9-11.9c0-1.4.9-3.7.2-3.7s-.7.3-1.3.8h0c-8.2,5.8-15.4,14-26.1,14h-.6c-5.6-.4-10.6-4.9-10.8-10.3,0-.9-.8-1.4-1.5-1.4s-.7,0-.9.3c-5.6,4.2-9.7,5.7-12.7,5.7-7.6,0-8.5-9.5-11.8-9.5h-.5c-7.6,7.1-12.8,9.4-16.7,9.4-7.4,0-9.4-9.4-12-9.4h-.2c-2.3.5-.8.4-2.2,1.2-1.8.7-2.9,1.1-4.2,1.1-4.2,0-6.6-3-10.1-6-.3-.3-.6-.4-1-.4s-1,.2-1.3.7c-7.4,10.7-9.4,25.9-14.3,38.3v.2c-3.1,5.5-5.1,7.8-6.4,7.8-5,0-.1-31.1,1.7-43,.2-1-.7-1.8-1.5-1.8s-.7,0-1,.4c-7.3,6.4-15.1,14-23.8,17.9-.2,0-.4,0-.6,0-.5,0-.9-.2-1.2-.6-2.3-3.4-2.1-9.3-2.6-13.3-.3-1.8,2-4.1,3.9-4.1s1.3.3,1.7,1c.3.6.5.9.7.9.3,0,.6-.6.9-1.6,2.6-9.8,2-13.3-.3-13.3-3.3,0-9,7.2-15.3,12.8-1,1.1-10.1,6.9-13.1,8.4.2-2.3.3-5,.3-7.7s-.1-7.1-.4-9.6c2.3.5,5.9,1.2,9.2,1.2s.7,0,1.1,0c1.7,0,3.5-.4,5.1-1.2,0,0,.2,0,.3-.2,3.1-2.7,5.3-5.5,8.4-8.4,6.6-7.4,10.9-10.4,13.6-10.4,7,0,2.5,20.3-2.3,32.3h.2c3.1,0,23.4-25.9,27.9-35.7,1.5-2.3,2.3-7.1,5.1-8.5.2-.1.4-.2.7-.2.5,0,1,.3,1.3.8,3.7,6.9-16.6,51.4-14.9,64.7,4.7-12.9,6.3-29.7,15.9-40.8.2-.2.4-.4.6-.4.8-.3,1.5-.5,2.2-.5,5.1,0,6.2,8.2,9.5,12.2.3.4.7.5,1.1.5.6,0,1.2-.4,1.5-1,7.2-19.8,17.2-28.1,22.8-28.1s6.9,10.3-7.9,26.3c0,0-.2.2-.3.4-2.5,5,.6,6.8,4.5,6.8s8-1.4,9.6-3.2c7.9-8.5,6.8-25.2,19.9-30.2.9-.3,1.7-.5,2.4-.5,3.5,0,5.3,3.5,5.6,7.4,0,0,0,.2,0,.2-1.3,8-7,13.3-12.8,19.8,0,.2-.3.3-.3.6-1.4,4.4,1.6,6,5.4,6s7.6-1.4,9.4-3.2c2.1-4.6,25.8-22.3,32.6-22.3h0c1.6,0,2.8,1.6,2.4,3.1,0,.3-.2.6-.3,1-1,1.4-2.5,3.2-4,5.5-.2.2-.4.4-.7.6-20.2,9-21.6,23.1-12.2,23.2h.2c9.3,0,10.9-3,18.9-10.9h.2c7.9-5.8,6.5-16.3,10.7-24.9,11.6-24,21-35.7,27-39,1.1-.5,2.1-.8,3-.9l-.3-.3M329.7,77c17.5-20.2,22-34,19.1-34s-9.6,9.3-18.6,31.8c-.5,1.3-1.1,1.7-.5,2.2M258.4,85.9h.3c1.7,0,6.4-6.3,6-7.6-.2-.8-.5-1.1-.9-1.1-2,0-6.3,7.7-5.4,8.7M228.9,86h0c0-.1.3-.1.3-.1,1.5,0,4.2-4.2,5.4-5.7.1-.2.2-.4.3-.6.3-1.7,0-2.3-.5-2.3-1.7,0-6.6,7.2-5.5,8.7M347.5,29l1.5,1.5s0,0,0,0h0s0,0,0,0c-7.5,4.1-17.4,18.3-27.8,39.9-1.6,3.4-2.5,6.9-3.2,10.3-1.3,5.6-2.4,10.5-6.7,13.6h0s-.3.2-.3.2l-.2.2c-1,1-2,2-2.8,2.8-5.7,5.8-7.4,7.5-14.7,7.5h-.2c-1.4,0-3.1-.4-3.5-2.3-.7-3.4,3.1-11.1,16.5-17.1h.2c0,0,.1-.2.1-.2.5-.3.8-.6,1-.9h.1c0-.1.1-.3.1-.3,1.1-1.6,2.1-3,3-4.2.3-.4.6-.8.9-1.2l.2-.2v-.2c.2-.4.4-.8.5-1.1.4-1.4.1-2.8-.7-3.9-.9-1.1-2.2-1.8-3.6-1.8-4.8,0-14.1,6.1-19.3,9.8-5.9,4.2-13.1,10-15,13.3-1.4,1.2-4.5,2.4-7.8,2.4s-3-.4-3.5-1c-.4-.6-.2-1.6,0-2.4h0c.7-.8,1.4-1.5,2.1-2.3,5.1-5.6,9.9-10.8,11.1-18.4h0c0-.1,0-.2,0-.2v-.2s0-.1,0-.1h0c-.4-5.7-3.4-9.3-7.6-9.3s-1.8.2-3,.6h0s0,0,0,0c-8.8,3.4-11.8,11.5-14.5,18.7-1.7,4.6-3.3,8.9-6.2,12-1.1,1.2-4.5,2.6-8.1,2.6s-2.9-.4-3.2-1c-.3-.5-.1-1.5.4-2.7,0,0,.2-.2.2-.3,11.4-12.4,13.4-21.6,11.5-26-1-2.2-2.9-3.5-5.2-3.5-6.6,0-17,9-24.4,28.6-.8-1.1-1.4-2.6-2.1-4-1.8-3.8-3.8-8.2-8.4-8.2s-1.9.3-2.7.6c-.7.2-1.2.7-1.5.9h0c0,0,0,.1,0,.1-1.1,1.3-2.1,2.6-3,4,4.7-14.6,7.3-23.9,5.3-27.5h0s0,0,0,0c-.7-1.1-1.8-1.8-3-1.8s-1.3.3-1.6.4c-2.5,1.3-3.7,4.1-4.7,6.6-.4,1-.8,2-1.2,2.6h0c0,.1,0,.3,0,.3-3.4,7.5-15.2,22.9-22,30.4,3-9.5,5.2-21.4,2.1-26-1-1.4-2.4-2.2-4.1-2.2-3.6,0-8.3,3.5-15,11-1.4,1.3-2.6,2.6-3.8,3.9-1.4,1.5-2.8,3-4.4,4.4-1.1.6-2.6.9-4.2,1-.3,0-.6,0-1,0-3.1,0-6.5-.7-8.7-1.2l-2.7-.6.3,2.8c.2,2.2.4,5.5.4,9.3s0,5.4-.3,7.6l-.3,3.5,3.1-1.6c3-1.5,12.1-7.3,13.6-8.8,2-1.8,3.9-3.7,5.8-5.5,2.7-2.7,6.4-6.4,8-6.7.2.5.6,2.6-1.1,9.2-.6-.2-1.3-.2-1.8-.2-1.6,0-3.3.9-4.5,2.3-1.1,1.3-1.6,2.7-1.3,4,.1.9.2,1.9.3,3,.3,3.8.6,8.1,2.7,11.1h0s0,0,0,0c.7.9,1.7,1.4,2.8,1.4s.6,0,.7,0h.3l.4-.2c7.7-3.5,14.5-9.5,21.1-15.4.7-.7,1.5-1.3,2.2-1.9h0c-4.2,28-4.8,39.6-2,42.9.6.8,1.5,1.2,2.5,1.2,2.3,0,4.5-2.4,8.1-8.8l.3-.5v-.3c1.7-4.4,3.1-9.2,4.4-13.8,2.4-8.2,4.8-16.8,9.2-23.3.5.4.9.8,1.4,1.2,2.8,2.5,5.4,4.9,9.7,4.9s3.2-.6,4.9-1.2h.1c0,0,.1-.1.1-.1.5-.3.8-.6,1.1-.9,0,0,0,0,.1,0,.4.4,1,1.3,1.5,2,2,2.9,5,7.3,10.7,7.3s10.4-2.9,17.3-9.3c.4.4,1.1,1.5,1.5,2.2,1.8,2.8,4.4,7.1,10.1,7.1s8-1.8,13.2-5.6c.7,5.8,6.2,10.8,12.6,11.3h0s0,0,0,0h.6c8.9,0,15.5-5.1,21.8-10.1,1.2-.9,2.3-1.9,3.5-2.7.4,8.5.7,13.7,6.9,13.7s10.3-7,16.3-15.6c.2.3.4.7.7,1.2.1.2.2.4.3.6,1.6,3,3,3.9,8.6,3.9s9.3-2.2,11.1-5.3c1.2-2.1,1.2-4.4-.1-6.6l-.3-.6-.6-.3-2.1-.9-.6-.3-.7.2c-.8.2-1.4.4-2.1.4h-.2c-2,0-2.8-1.9-4-6.3-.4-1.4-.8-2.9-1.4-4.4-.3-1-1.2-1.8-2.1-2.1-.7-.3-1.4-.4-2-.4-1,0-1.9.2-3,.7h0s0,0,0,0c-3.5,1.9-5.8,6.9-8.3,12.2-1.2,2.6-2.4,5.3-3.7,7.2,0-1.9.6-4.2,1.2-6.4.3-1.2.6-2.5.8-3.7,13.8-14.4,21.2-27.2,25-35.4,4.6-10.1,6.3-18.8,4.5-23.4-.9-2.2-2.6-3.4-4.7-3.5l-5.1-.2h0ZM336.2,65.7c5.3-11.8,9-17.3,11.1-19.5-1,3.4-4.3,10.3-11.1,19.5h0Z"/>
    </g>
    <path class="cls-1" d="M125.2,87v.4c.2,0,.3-.1.4-.2l-.4-.2Z"/>
  </g>
  <path class="cls-6" d="M133.6,89c.4,3,.5,7.6.4,11.4s0,3.8-.4,6.1"/>
  <path class="cls-7" d="M135.9,89.6c.7,4.6.5,13.3,0,16.3"/>
  <path class="cls-8" d="M138.3,89.9c.7,4.1.5,11.7,0,14.5"/>
  <path class="cls-9" d="M140.3,90.3c.7,3.5.5,10.1,0,12.4"/>
  <path class="cls-10" d="M131.6,89c.3,5.1.2,14.6,0,18"/>
</svg>